<?xml version="1.0"?>
<svg contentScriptType="text/ecmascript" contentStyleType="text/css" enable-background="new 0 0 2048 2048" height="2048px" id="Layer_1" preserveAspectRatio="xMidYMid meet" version="1.1" viewBox="0.0 0 1408.0 2048" width="1408.0px" xml:space="preserve" xmlns="http://www.w3.org/2000/svg" xmlns:xlink="http://www.w3.org/1999/xlink" zoomAndPan="magnify">
    <text fill="#ffffff" x="50%" y="50%" alignment-baseline="middle" text-anchor="middle" font-size="600" font-family="Verdana">1</text>
    <path d="M1120,384H288c-44,0-81.667,15.667-113,47s-47,69-47,113v832c0,44,15.667,81.667,47,113s69,47,113,47h832  c44,0,81.667-15.667,113-47s47-69,47-113V544c0-44-15.667-81.667-47-113S1164,384,1120,384z M1408,544v832  c0,79.333-28.167,147.167-84.5,203.5S1199.333,1664,1120,1664H288c-79.333,0-147.167-28.167-203.5-84.5S0,1455.333,0,1376V544  c0-79.333,28.167-147.167,84.5-203.5S208.667,256,288,256h832c79.333,0,147.167,28.167,203.5,84.5S1408,464.667,1408,544z" />
</svg>