<svg width="1112.000000pt" height="1618.000000pt" viewBox="0 0 1112.000000 1618.000000" xmlns="http://www.w3.org/2000/svg">
  <g transform="translate(0.000000,1618.000000) scale(0.100000,-0.100000)" fill="#46eb7d" stroke="none">
    <path d="M2180 13149 c-113 -10 -231 -32 -308 -58 -57 -20 -200 -85 -247 -114
-57 -35 -105 -71 -105 -78 0 -5 -6 -9 -13 -9 -7 0 -28 -16 -47 -35 -19 -19
-41 -35 -47 -35 -7 0 -13 -3 -13 -7 0 -5 -25 -34 -55 -66 -30 -33 -55 -63 -55
-68 0 -5 -4 -9 -8 -9 -11 0 -142 -196 -142 -212 0 -7 -9 -24 -20 -38 -11 -14
-20 -31 -20 -38 0 -8 -6 -28 -14 -45 -27 -62 -54 -173 -67 -277 l-14 -105 0
-3360 0 -3360 14 -105 c13 -104 40 -215 67 -277 8 -17 14 -35 14 -40 0 -29
163 -293 182 -293 4 0 8 -5 8 -10 0 -6 25 -37 55 -68 30 -31 55 -60 55 -64 0
-5 5 -8 11 -8 6 0 24 -14 41 -30 39 -40 157 -121 218 -152 14 -6 36 -19 50
-28 14 -10 34 -20 45 -23 11 -3 52 -17 90 -31 39 -14 124 -36 190 -48 l120
-23 3395 0 3395 0 122 23 c186 35 331 92 467 184 57 39 146 112 146 119 0 5 6
9 13 9 6 0 30 21 52 47 22 26 48 54 58 62 10 9 32 37 49 64 16 26 34 47 39 47
5 0 9 5 9 11 0 6 9 23 19 38 32 45 101 181 101 199 0 10 4 22 9 28 5 5 20 52
34 104 l25 95 11 140 11 141 0 3249 0 3249 -11 141 -11 140 -25 95 c-14 52
-29 99 -34 105 -5 5 -9 17 -9 27 0 39 -156 296 -214 353 -12 11 -39 42 -61 68
-22 26 -45 47 -52 47 -6 0 -13 4 -15 9 -3 9 -105 93 -144 118 -11 7 -36 24
-57 38 -21 14 -40 25 -42 25 -2 0 -32 13 -67 29 -95 44 -172 68 -293 93 l-110
22 -3355 2 c-1845 1 -3393 -2 -3440 -7z" />
  </g>
  <g transform="translate(0.000000,1618.000000) scale(0.100000,-0.100000)" fill="#fefefe" stroke="none">
    <path d="M0 14119 l0 -2060 9 5 c5 4 12 45 16 94 3 48 15 123 26 166 10 44 19
88 19 99 0 35 87 286 137 397 33 72 92 180 109 201 8 8 14 19 14 23 0 6 49 86
60 96 3 3 30 39 61 80 31 41 76 98 100 125 86 99 310 315 327 315 4 0 15 8 23
18 9 9 29 26 44 37 16 11 41 30 56 43 15 12 30 22 33 22 3 0 29 16 56 35 27
19 53 35 57 35 5 0 19 9 33 20 14 11 32 20 41 20 9 0 24 9 34 20 10 11 24 20
31 20 7 0 30 7 51 17 21 9 56 24 78 34 160 70 242 93 525 146 l95 18 3480 3
3480 2 110 -16 c61 -9 137 -20 170 -25 51 -7 122 -24 281 -68 18 -5 46 -16 64
-25 18 -9 38 -16 43 -16 5 0 28 -9 51 -19 23 -11 59 -27 81 -36 22 -9 47 -20
55 -26 8 -5 29 -16 45 -24 17 -8 46 -25 66 -37 20 -13 61 -38 92 -56 30 -17
60 -39 67 -47 7 -8 16 -15 21 -15 9 0 44 -28 81 -62 10 -10 21 -18 25 -18 3 0
13 -7 22 -15 9 -8 37 -34 62 -58 108 -101 176 -168 209 -207 19 -23 45 -53 58
-67 12 -13 42 -50 65 -81 23 -32 45 -58 50 -60 4 -2 7 -10 7 -17 0 -7 4 -15 8
-17 7 -3 72 -95 72 -103 0 -2 25 -46 55 -99 30 -52 55 -99 55 -105 0 -5 8 -26
19 -48 10 -21 25 -56 34 -78 8 -22 24 -65 36 -95 11 -31 21 -62 21 -69 0 -8 9
-42 19 -75 28 -91 61 -273 61 -338 l0 -58 10 0 10 0 0 2055 0 2055 -5560 0
-5560 0 0 -2061z" />
    <path d="M11107 5123 c-4 -3 -7 -31 -7 -62 0 -62 -33 -249 -57 -326 -9 -27
-20 -66 -24 -85 -4 -19 -19 -66 -34 -105 -14 -38 -30 -83 -35 -99 -5 -16 -16
-39 -25 -52 -8 -13 -15 -28 -15 -34 0 -22 -164 -301 -182 -308 -4 -2 -8 -8 -8
-13 0 -10 -132 -179 -185 -237 -46 -51 -192 -191 -265 -255 -8 -7 -35 -28 -60
-47 -25 -19 -47 -37 -50 -40 -3 -3 -12 -9 -21 -15 -10 -5 -37 -24 -60 -40 -24
-17 -51 -34 -59 -38 -8 -4 -33 -18 -55 -32 -22 -14 -53 -32 -70 -40 -16 -8
-37 -19 -45 -24 -8 -5 -37 -20 -65 -32 -27 -12 -68 -30 -90 -40 -22 -9 -65
-25 -95 -34 -30 -10 -66 -22 -78 -26 -58 -22 -249 -62 -382 -80 l-145 -19
-3435 0 -3435 0 -125 16 c-131 16 -257 42 -375 76 -96 27 -217 73 -286 109
-20 11 -43 19 -51 19 -8 0 -23 9 -33 20 -10 11 -25 20 -34 20 -9 0 -27 9 -41
20 -14 11 -28 20 -33 20 -4 0 -30 16 -57 35 -27 19 -52 35 -55 35 -6 0 -70 48
-101 75 -6 6 -22 17 -34 25 -37 25 -140 119 -241 219 -75 76 -198 222 -267
316 -27 37 -62 96 -62 104 0 5 -4 11 -8 13 -7 2 -46 69 -89 153 -101 197 -192
513 -209 723 -3 45 -10 82 -15 82 l-9 0 0 -2560 0 -2560 5560 0 5560 0 0 2565
c0 1411 -1 2565 -3 2565 -2 0 -7 -3 -10 -7z" />
  </g>
  <g transform="translate(0.000000,1618.000000) scale(0.100000,-0.100000)" fill="#000000" stroke="none">
    <path d="M2070 14155 c-8 -2 -67 -11 -130 -20 -231 -34 -366 -70 -535 -144
-22 -10 -57 -25 -78 -34 -21 -10 -44 -17 -51 -17 -7 0 -21 -9 -31 -20 -10 -11
-25 -20 -34 -20 -9 0 -27 -9 -41 -20 -14 -11 -28 -20 -33 -20 -4 0 -30 -16
-57 -35 -27 -19 -53 -35 -56 -35 -3 0 -18 -10 -33 -22 -15 -13 -40 -32 -56
-43 -15 -11 -35 -28 -44 -37 -8 -10 -19 -18 -23 -18 -17 0 -241 -216 -327
-315 -24 -27 -69 -84 -100 -125 -31 -41 -58 -77 -61 -80 -11 -10 -60 -90 -60
-96 0 -4 -6 -15 -14 -23 -17 -21 -76 -129 -109 -201 -50 -111 -137 -362 -137
-397 0 -11 -8 -55 -19 -99 -10 -43 -24 -129 -30 -189 l-11 -111 0 -3443 0
-3442 10 -97 c28 -258 110 -545 213 -747 43 -84 82 -151 89 -153 4 -2 8 -8 8
-13 0 -35 202 -292 329 -420 101 -100 204 -194 241 -219 12 -8 28 -19 34 -25
31 -27 95 -75 101 -75 3 0 28 -16 55 -35 27 -19 53 -35 57 -35 5 0 19 -9 33
-20 14 -11 32 -20 41 -20 9 0 24 -9 34 -20 10 -11 25 -20 33 -20 8 0 31 -8 51
-19 69 -36 190 -82 286 -109 118 -34 244 -60 375 -76 l125 -16 3445 0 3445 0
145 19 c133 18 324 58 382 80 12 4 48 16 78 26 30 9 73 25 95 34 22 10 63 28
90 40 28 12 57 27 65 32 8 5 29 16 45 24 17 8 48 26 70 40 22 14 47 28 55 32
8 4 35 21 59 38 23 16 50 35 60 40 9 6 18 12 21 15 3 3 25 21 50 40 25 19 52
40 60 47 73 64 219 204 265 255 53 58 185 227 185 237 0 5 4 11 8 13 18 7 182
286 182 308 0 6 7 21 15 34 9 13 20 36 25 52 5 16 21 61 35 99 15 39 30 86 34
105 4 19 15 58 24 85 9 28 26 104 39 170 l23 120 0 3580 0 3580 -23 120 c-13
66 -33 147 -43 181 -10 33 -19 67 -19 75 0 7 -10 38 -21 69 -12 30 -28 73 -36
95 -9 22 -24 57 -34 78 -11 22 -19 43 -19 48 0 6 -25 53 -55 105 -30 53 -55
97 -55 99 0 8 -65 100 -72 103 -4 2 -8 10 -8 17 0 7 -3 15 -7 17 -5 2 -27 28
-50 60 -23 31 -53 68 -65 81 -13 14 -39 44 -58 67 -33 39 -101 106 -209 207
-25 24 -53 50 -62 58 -9 8 -19 15 -22 15 -4 0 -15 8 -25 18 -37 34 -72 62 -81
62 -5 0 -14 7 -21 15 -7 8 -37 30 -67 47 -31 18 -72 43 -92 56 -20 12 -49 29
-66 37 -16 8 -37 19 -45 24 -8 6 -33 17 -55 26 -22 9 -58 25 -81 36 -23 10
-46 19 -51 19 -5 0 -25 7 -43 16 -18 9 -46 20 -64 25 -158 43 -231 61 -286 69
-36 5 -110 16 -165 24 l-100 16 -3465 -1 c-1906 -1 -3472 -3 -3480 -4z m7005
-1033 c121 -25 198 -49 293 -93 35 -16 65 -29 67 -29 2 0 21 -11 42 -25 21
-14 46 -31 57 -38 39 -25 141 -109 144 -118 2 -5 9 -9 15 -9 7 0 30 -21 52
-47 22 -26 49 -57 61 -68 58 -57 214 -314 214 -353 0 -10 4 -22 9 -27 5 -6 20
-53 34 -105 l25 -95 11 -140 11 -141 0 -3239 0 -3239 -11 -141 -11 -140 -25
-95 c-14 -52 -29 -99 -34 -105 -5 -5 -9 -17 -9 -27 0 -18 -69 -154 -101 -199
-10 -15 -19 -32 -19 -38 0 -6 -4 -11 -9 -11 -5 0 -23 -21 -39 -47 -17 -27 -39
-55 -49 -64 -10 -8 -36 -36 -58 -62 -22 -26 -46 -47 -52 -47 -7 0 -13 -4 -13
-9 0 -7 -89 -80 -146 -119 -136 -92 -281 -149 -467 -184 l-122 -23 -3385 0
-3385 0 -120 23 c-66 12 -151 34 -190 48 -38 14 -79 28 -90 31 -11 3 -31 13
-45 23 -14 9 -36 22 -50 28 -61 31 -179 112 -218 152 -17 16 -35 30 -41 30 -6
0 -11 3 -11 8 0 4 -25 33 -55 64 -30 31 -55 62 -55 68 0 5 -4 10 -8 10 -19 0
-182 264 -182 293 0 5 -6 23 -14 40 -27 62 -54 173 -67 277 l-14 105 0 3350 0
3350 14 105 c13 104 40 215 67 277 8 17 14 37 14 45 0 7 9 24 20 38 11 14 20
31 20 38 0 16 131 212 142 212 4 0 8 4 8 9 0 5 25 35 55 68 30 32 55 61 55 66
0 4 6 7 13 7 6 0 28 16 47 35 19 19 40 35 47 35 7 0 13 4 13 9 0 7 48 43 105
78 47 29 190 94 247 114 77 26 195 48 308 58 47 5 1590 8 3430 7 l3345 -2 110
-22z" />
  </g>
  <g transform="translate(0.000000,1618.000000) scale(0.100000,-0.100000)" fill="#0c0c0c" stroke="none">
    <path d="M2228 14153 c6 -2 18 -2 25 0 6 3 1 5 -13 5 -14 0 -19 -2 -12 -5z" />
    <path d="M8868 14153 c6 -2 18 -2 25 0 6 3 1 5 -13 5 -14 0 -19 -2 -12 -5z" />
    <path d="M2053 14143 c4 -3 10 -3 14 0 3 4 0 7 -7 7 -7 0 -10 -3 -7 -7z" />
    <path d="M9053 14143 c4 -3 10 -3 14 0 3 4 0 7 -7 7 -7 0 -10 -3 -7 -7z" />
    <path d="M1750 14100 l-15 -10 12 0 c6 0 15 5 18 10 8 12 4 12 -15 0z" />
    <path d="M9357 14099 c7 -7 15 -10 18 -7 3 3 -2 9 -12 12 l-18 7 12 -12z" />
    <path d="M1660 14080 l-15 -10 12 0 c6 0 15 5 18 10 8 12 4 12 -15 0z" />
    <path d="M9447 14079 c7 -7 15 -10 18 -7 3 3 -2 9 -12 12 l-18 7 12 -12z" />
    <path d="M1595 14060 c-3 -5 -2 -10 4 -10 5 0 13 5 16 10 3 6 2 10 -4 10 -5 0
-13 -4 -16 -10z" />
    <path d="M9505 14060 c3 -5 11 -10 16 -10 6 0 7 5 4 10 -3 6 -11 10 -16 10 -6
0 -7 -4 -4 -10z" />
    <path d="M9563 14043 c4 -3 10 -3 14 0 3 4 0 7 -7 7 -7 0 -10 -3 -7 -7z" />
    <path d="M9625 14020 c3 -5 11 -10 16 -10 6 0 7 5 4 10 -3 6 -11 10 -16 10 -6
0 -7 -4 -4 -10z" />
    <path d="M9673 14003 c4 -3 10 -3 14 0 3 4 0 7 -7 7 -7 0 -10 -3 -7 -7z" />
    <path d="M1343 13963 c4 -3 10 -3 14 0 3 4 0 7 -7 7 -7 0 -10 -3 -7 -7z" />
    <path d="M1175 13880 c-3 -5 -1 -10 4 -10 6 0 11 5 11 10 0 6 -2 10 -4 10 -3
0 -8 -4 -11 -10z" />
    <path d="M1115 13850 c-3 -5 -2 -10 4 -10 5 0 13 5 16 10 3 6 2 10 -4 10 -5 0
-13 -4 -16 -10z" />
    <path d="M9985 13850 c3 -5 11 -10 16 -10 6 0 7 5 4 10 -3 6 -11 10 -16 10 -6
0 -7 -4 -4 -10z" />
    <path d="M1005 13780 c-3 -5 -2 -10 4 -10 5 0 13 5 16 10 3 6 2 10 -4 10 -5 0
-13 -4 -16 -10z" />
    <path d="M10095 13780 c3 -5 11 -10 16 -10 6 0 7 5 4 10 -3 6 -11 10 -16 10
-6 0 -7 -4 -4 -10z" />
    <path d="M10150 13746 c0 -2 7 -9 15 -16 l15 -13 -6 17 c-3 9 -10 16 -15 16
-5 0 -9 -2 -9 -4z" />
    <path d="M10300 13626 c0 -2 7 -9 15 -16 l15 -13 -6 17 c-3 9 -10 16 -15 16
-5 0 -9 -2 -9 -4z" />
    <path d="M417 13203 c-4 -3 -7 -11 -7 -17 l0 -10 12 12 c6 6 9 14 7 17 -3 3
-9 2 -12 -2z" />
    <path d="M10690 13201 c0 -5 5 -13 10 -16 6 -3 10 -2 10 4 0 5 -4 13 -10 16
-5 3 -10 2 -10 -4z" />
    <path d="M384 13152 c-11 -7 -38 -52 -31 -52 2 0 13 14 25 30 24 31 24 35 6
22z" />
    <path d="M2125 13140 l-6 -10 15 6 c18 7 21 14 7 14 -6 0 -13 -4 -16 -10z" />
    <path d="M8970 13146 c0 -2 7 -7 16 -10 l15 -6 -6 10 c-6 10 -25 14 -25 6z" />
    <path d="M10742 13130 c7 -11 16 -20 20 -20 5 0 3 9 -4 20 -7 11 -16 20 -20
20 -5 0 -3 -9 4 -20z" />
    <path d="M2075 13130 l-6 -10 15 6 c18 7 21 14 7 14 -6 0 -13 -4 -16 -10z" />
    <path d="M1915 13100 l-6 -10 15 6 c18 7 21 14 7 14 -6 0 -13 -4 -16 -10z" />
    <path d="M9180 13106 c0 -2 7 -7 16 -10 l15 -6 -6 10 c-6 10 -25 14 -25 6z" />
    <path d="M1675 13000 l-6 -10 15 6 c18 7 21 14 7 14 -6 0 -13 -4 -16 -10z" />
    <path d="M9423 13003 c4 -3 10 -3 14 0 3 4 0 7 -7 7 -7 0 -10 -3 -7 -7z" />
    <path d="M277 12983 c-4 -3 -7 -11 -7 -17 l0 -10 12 12 c6 6 9 14 7 17 -3 3
-9 2 -12 -2z" />
    <path d="M1640 12979 c0 -5 5 -7 10 -4 6 3 10 8 10 11 0 2 -4 4 -10 4 -5 0
-10 -5 -10 -11z" />
    <path d="M9465 12980 c3 -5 11 -10 16 -10 6 0 7 5 4 10 -3 6 -11 10 -16 10 -6
0 -7 -4 -4 -10z" />
    <path d="M9526 12945 c4 -8 11 -15 16 -15 l10 0 -12 15 c-7 8 -14 15 -16 15
-2 0 -1 -7 2 -15z" />
    <path d="M1575 12940 c-3 -5 -2 -10 4 -10 5 0 13 5 16 10 3 6 2 10 -4 10 -5 0
-13 -4 -16 -10z" />
    <path d="M9676 12825 c4 -8 11 -15 16 -15 l10 0 -12 15 c-7 8 -14 15 -16 15
-2 0 -1 -7 2 -15z" />
    <path d="M1425 12820 c-3 -5 -2 -10 4 -10 5 0 13 5 16 10 3 6 2 10 -4 10 -5 0
-13 -4 -16 -10z" />
    <path d="M187 12813 c-4 -3 -7 -11 -7 -17 l0 -10 12 12 c6 6 9 14 7 17 -3 3
-9 2 -12 -2z" />
    <path d="M10920 12811 c0 -5 5 -13 10 -16 6 -3 10 -2 10 4 0 5 -4 13 -10 16
-5 3 -10 2 -10 -4z" />
    <path d="M10950 12750 c0 -7 3 -10 7 -7 3 4 3 10 0 14 -4 3 -7 0 -7 -7z" />
    <path d="M1335 12729 c-4 -6 -5 -12 -2 -15 2 -3 7 2 10 11 7 17 1 20 -8 4z" />
    <path d="M147 12713 c-4 -3 -7 -11 -7 -17 l0 -10 12 12 c6 6 9 14 7 17 -3 3
-9 2 -12 -2z" />
    <path d="M10960 12711 c0 -5 5 -13 10 -16 6 -3 10 -2 10 4 0 5 -4 13 -10 16
-5 3 -10 2 -10 -4z" />
    <path d="M107 12603 c-4 -3 -7 -13 -7 -22 l1 -16 10 18 c11 19 8 33 -4 20z" />
    <path d="M11000 12609 c0 -4 7 -22 15 -40 l14 -34 1 21 c0 17 -29 70 -30 53z" />
    <path d="M9896 12577 c3 -10 9 -15 12 -12 3 3 0 11 -7 18 l-12 12 7 -18z" />
    <path d="M1210 12569 c0 -5 5 -7 10 -4 6 3 10 8 10 11 0 2 -4 4 -10 4 -5 0
-10 -5 -10 -11z" />
    <path d="M76 12493 l-7 -18 12 12 c7 7 10 15 7 18 -3 3 -9 -2 -12 -12z" />
    <path d="M11030 12501 c0 -6 4 -13 10 -16 l10 -6 -6 15 c-7 18 -14 21 -14 7z" />
    <path d="M11060 12400 c0 -7 3 -10 7 -7 3 4 3 10 0 14 -4 3 -7 0 -7 -7z" />
    <path d="M1087 12333 c-4 -3 -7 -11 -7 -17 l0 -10 12 12 c6 6 9 14 7 17 -3 3
-9 2 -12 -2z" />
    <path d="M10020 12331 c0 -5 5 -13 10 -16 6 -3 10 -2 10 4 0 5 -4 13 -10 16
-5 3 -10 2 -10 -4z" />
    <path d="M1055 12239 c-4 -6 -5 -12 -2 -15 2 -3 7 2 10 11 7 17 1 20 -8 4z" />
    <path d="M10056 12237 c3 -10 9 -15 12 -12 3 3 0 11 -7 18 l-12 12 7 -18z" />
    <path d="M1025 12079 c-4 -6 -5 -12 -2 -15 2 -3 7 2 10 11 7 17 1 20 -8 4z" />
    <path d="M10090 12070 c0 -7 3 -10 7 -7 3 4 3 10 0 14 -4 3 -7 0 -7 -7z" />
    <path d="M11112 11925 l0 -30 5 18 c2 9 2 23 0 30 -3 6 -5 -1 -5 -18z" />
    <path d="M2 11920 c0 -14 2 -19 5 -12 2 6 2 18 0 25 -3 6 -5 1 -5 -13z" />
    <path d="M2 5265 l0 -30 5 18 c2 9 2 23 0 30 -3 6 -5 -1 -5 -18z" />
    <path d="M11112 5270 c0 -14 2 -19 5 -12 2 6 2 18 0 25 -3 6 -5 1 -5 -13z" />
    <path d="M1020 5121 c0 -6 4 -13 10 -16 l10 -6 -6 15 c-7 18 -14 21 -14 7z" />
    <path d="M10090 5120 c0 -7 3 -10 7 -7 3 4 3 10 0 14 -4 3 -7 0 -7 -7z" />
    <path d="M10 5090 c0 -7 3 -10 7 -7 3 4 3 10 0 14 -4 3 -7 0 -7 -7z" />
    <path d="M1050 4961 c0 -6 4 -13 10 -16 l10 -6 -6 15 c-7 18 -14 21 -14 7z" />
    <path d="M10056 4953 l-7 -18 12 12 c7 7 10 15 7 18 -3 3 -9 -2 -12 -12z" />
    <path d="M1080 4871 c0 -5 5 -13 10 -16 6 -3 10 -2 10 4 0 5 -4 13 -10 16 -5
3 -10 2 -10 -4z" />
    <path d="M10027 4873 c-4 -3 -7 -11 -7 -17 l0 -10 12 12 c6 6 9 14 7 17 -3 3
-9 2 -12 -2z" />
    <path d="M76 4697 c3 -10 9 -15 12 -12 3 3 0 11 -7 18 l-12 12 7 -18z" />
    <path d="M11035 4699 c-4 -6 -5 -12 -2 -15 2 -3 7 2 10 11 7 17 1 20 -8 4z" />
    <path d="M1210 4621 c0 -5 5 -13 10 -16 6 -3 10 -2 10 4 0 5 -4 13 -10 16 -5
3 -10 2 -10 -4z" />
    <path d="M9900 4620 c0 -7 3 -10 7 -7 3 4 3 10 0 14 -4 3 -7 0 -7 -7z" />
    <path d="M11010 4610 c-6 -12 -9 -24 -7 -27 3 -2 11 5 17 17 6 12 9 24 7 27
-3 2 -11 -5 -17 -17z" />
    <path d="M100 4608 c0 -9 5 -20 10 -23 13 -8 13 5 0 25 l-10 15 0 -17z" />
    <path d="M10980 4520 c0 -7 3 -10 7 -7 3 4 3 10 0 14 -4 3 -7 0 -7 -7z" />
    <path d="M140 4491 c0 -5 5 -13 10 -16 6 -3 10 -2 10 4 0 5 -4 13 -10 16 -5 3
-10 2 -10 -4z" />
    <path d="M10967 4493 c-4 -3 -7 -11 -7 -17 l0 -10 12 12 c6 6 9 14 7 17 -3 3
-9 2 -12 -2z" />
    <path d="M1330 4471 c0 -6 4 -13 10 -16 l10 -6 -6 15 c-7 18 -14 21 -14 7z" />
    <path d="M9775 4460 c-3 -5 -1 -10 4 -10 6 0 11 5 11 10 0 6 -2 10 -4 10 -3 0
-8 -4 -11 -10z" />
    <path d="M170 4411 c0 -5 5 -13 10 -16 6 -3 10 -2 10 4 0 5 -4 13 -10 16 -5 3
-10 2 -10 -4z" />
    <path d="M10937 4413 c-4 -3 -7 -11 -7 -17 l0 -10 12 12 c6 6 9 14 7 17 -3 3
-9 2 -12 -2z" />
    <path d="M1425 4370 c3 -5 11 -10 16 -10 6 0 7 5 4 10 -3 6 -11 10 -16 10 -6
0 -7 -4 -4 -10z" />
    <path d="M9676 4364 l-6 -17 15 13 c17 14 19 20 6 20 -5 0 -12 -7 -15 -16z" />
    <path d="M1575 4250 c3 -5 11 -10 16 -10 6 0 7 5 4 10 -3 6 -11 10 -16 10 -6
0 -7 -4 -4 -10z" />
    <path d="M9526 4244 l-6 -17 15 13 c17 14 19 20 6 20 -5 0 -12 -7 -15 -16z" />
    <path d="M270 4221 c0 -5 5 -13 10 -16 6 -3 10 -2 10 4 0 5 -4 13 -10 16 -5 3
-10 2 -10 -4z" />
    <path d="M1640 4210 c0 -5 5 -10 11 -10 5 0 7 5 4 10 -3 6 -8 10 -11 10 -2 0
-4 -4 -4 -10z" />
    <path d="M9465 4210 c-3 -5 -2 -10 4 -10 5 0 13 5 16 10 3 6 2 10 -4 10 -5 0
-13 -4 -16 -10z" />
    <path d="M1677 4189 c7 -7 15 -10 18 -7 3 3 -2 9 -12 12 l-18 7 12 -12z" />
    <path d="M9423 4183 c4 -3 10 -3 14 0 3 4 0 7 -7 7 -7 0 -10 -3 -7 -7z" />
    <path d="M300 4160 c0 -5 5 -10 11 -10 5 0 7 5 4 10 -3 6 -8 10 -11 10 -2 0
-4 -4 -4 -10z" />
    <path d="M1917 4089 c7 -7 15 -10 18 -7 3 3 -2 9 -12 12 l-18 7 12 -12z" />
    <path d="M9190 4090 l-15 -10 12 0 c6 0 15 5 18 10 8 12 4 12 -15 0z" />
    <path d="M362 4066 c6 -14 17 -27 24 -30 l14 -5 -22 29 c-12 17 -23 30 -25 30
-1 0 2 -11 9 -24z" />
    <path d="M10742 4060 c-7 -11 -9 -20 -4 -20 4 0 13 9 20 20 7 11 9 20 4 20 -4
0 -13 -9 -20 -20z" />
    <path d="M2077 4059 c7 -7 15 -10 18 -7 3 3 -2 9 -12 12 l-18 7 12 -12z" />
    <path d="M2127 4049 c7 -7 15 -10 18 -7 3 3 -2 9 -12 12 l-18 7 12 -12z" />
    <path d="M8980 4050 l-15 -10 12 0 c6 0 15 5 18 10 8 12 4 12 -15 0z" />
    <path d="M415 3990 c3 -5 8 -10 11 -10 2 0 4 5 4 10 0 6 -5 10 -11 10 -5 0 -7
-4 -4 -10z" />
    <path d="M10690 3989 c0 -5 5 -7 10 -4 6 3 10 8 10 11 0 2 -4 4 -10 4 -5 0
-10 -5 -10 -11z" />
    <path d="M535 3840 c3 -5 8 -10 11 -10 2 0 4 5 4 10 0 6 -5 10 -11 10 -5 0 -7
-4 -4 -10z" />
    <path d="M10160 3455 l-12 -15 10 0 c5 0 12 7 16 15 3 8 4 15 2 15 -2 0 -9 -7
-16 -15z" />
    <path d="M1005 3410 c3 -5 11 -10 16 -10 6 0 7 5 4 10 -3 6 -11 10 -16 10 -6
0 -7 -4 -4 -10z" />
    <path d="M10095 3410 c-3 -5 -2 -10 4 -10 5 0 13 5 16 10 3 6 2 10 -4 10 -5 0
-13 -4 -16 -10z" />
    <path d="M1115 3340 c3 -5 11 -10 16 -10 6 0 7 5 4 10 -3 6 -11 10 -16 10 -6
0 -7 -4 -4 -10z" />
    <path d="M9985 3340 c-3 -5 -2 -10 4 -10 5 0 13 5 16 10 3 6 2 10 -4 10 -5 0
-13 -4 -16 -10z" />
    <path d="M1175 3310 c3 -5 8 -10 11 -10 2 0 4 5 4 10 0 6 -5 10 -11 10 -5 0
-7 -4 -4 -10z" />
    <path d="M1345 3220 c3 -5 11 -10 16 -10 6 0 7 5 4 10 -3 6 -11 10 -16 10 -6
0 -7 -4 -4 -10z" />
    <path d="M9665 3180 c-3 -5 -2 -10 4 -10 5 0 13 5 16 10 3 6 2 10 -4 10 -5 0
-13 -4 -16 -10z" />
    <path d="M9563 3143 c4 -3 10 -3 14 0 3 4 0 7 -7 7 -7 0 -10 -3 -7 -7z" />
    <path d="M1595 3130 c3 -5 11 -10 16 -10 6 0 7 5 4 10 -3 6 -11 10 -16 10 -6
0 -7 -4 -4 -10z" />
    <path d="M9505 3130 c-3 -5 -2 -10 4 -10 5 0 13 5 16 10 3 6 2 10 -4 10 -5 0
-13 -4 -16 -10z" />
    <path d="M1650 3116 c0 -2 7 -7 16 -10 l15 -6 -6 10 c-6 10 -25 14 -25 6z" />
    <path d="M9445 3110 l-6 -10 15 6 c18 7 21 14 7 14 -6 0 -13 -4 -16 -10z" />
    <path d="M1740 3096 c0 -2 7 -7 16 -10 l15 -6 -6 10 c-6 10 -25 14 -25 6z" />
    <path d="M9355 3090 l-6 -10 15 6 c18 7 21 14 7 14 -6 0 -13 -4 -16 -10z" />
    <path d="M2053 3043 c4 -3 10 -3 14 0 3 4 0 7 -7 7 -7 0 -10 -3 -7 -7z" />
    <path d="M9053 3043 c4 -3 10 -3 14 0 3 4 0 7 -7 7 -7 0 -10 -3 -7 -7z" />
    <path d="M2228 3033 c6 -2 18 -2 25 0 6 3 1 5 -13 5 -14 0 -19 -2 -12 -5z" />
    <path d="M8868 3033 c6 -2 18 -2 25 0 6 3 1 5 -13 5 -14 0 -19 -2 -12 -5z" />
  </g>
  <g transform="translate(0.000000,1618.000000) scale(0.100000,-0.100000)" fill="#848484" stroke="none">
    <path d="M8988 14153 c7 -3 16 -2 19 1 4 3 -2 6 -13 5 l-19 -1 13 -5z" />
    <path d="M2018 14143 c7 -3 16 -2 19 1 4 3 -2 6 -13 5 l-19 -1 13 -5z" />
    <path d="M9088 14143 c7 -3 16 -2 19 1 4 3 -2 6 -13 5 l-19 -1 13 -5z" />
    <path d="M1958 14133 c7 -3 16 -2 19 1 4 3 -2 6 -13 5 l-19 -1 13 -5z" />
    <path d="M9148 14133 c7 -3 16 -2 19 1 4 3 -2 6 -13 5 l-19 -1 13 -5z" />
    <path d="M1898 14123 c7 -3 16 -2 19 1 4 3 -2 6 -13 5 l-19 -1 13 -5z" />
    <path d="M9208 14123 c7 -3 16 -2 19 1 4 3 -2 6 -13 5 l-19 -1 13 -5z" />
    <path d="M1808 14113 c7 -3 16 -2 19 1 4 3 -2 6 -13 5 l-19 -1 13 -5z" />
    <path d="M9298 14113 c7 -3 16 -2 19 1 4 3 -2 6 -13 5 l-19 -1 13 -5z" />
    <path d="M1733 14093 c4 -3 10 -3 14 0 3 4 0 7 -7 7 -7 0 -10 -3 -7 -7z" />
    <path d="M9433 14083 c4 -3 10 -3 14 0 3 4 0 7 -7 7 -7 0 -10 -3 -7 -7z" />
    <path d="M9487 14069 c7 -7 15 -10 18 -7 3 3 -2 9 -12 12 l-18 7 12 -12z" />
    <path d="M1618 14063 c7 -3 16 -2 19 1 4 3 -2 6 -13 5 l-19 -1 13 -5z" />
    <path d="M1405 13990 l-6 -10 15 6 c18 7 21 14 7 14 -6 0 -13 -4 -16 -10z" />
    <path d="M9698 13993 c7 -3 16 -2 19 1 4 3 -2 6 -13 5 l-19 -1 13 -5z" />
    <path d="M9733 13973 c4 -3 10 -3 14 0 3 4 0 7 -7 7 -7 0 -10 -3 -7 -7z" />
    <path d="M1303 13943 c4 -3 10 -3 14 0 3 4 0 7 -7 7 -7 0 -10 -3 -7 -7z" />
    <path d="M9810 13944 c8 -4 29 -13 45 -21 l30 -15 -15 15 c-8 9 -28 18 -45 21
-16 4 -23 3 -15 0z" />
    <path d="M1260 13930 c0 -5 7 -7 15 -4 8 4 15 8 15 10 0 2 -7 4 -15 4 -8 0
-15 -4 -15 -10z" />
    <path d="M1170 13880 c-8 -5 -12 -12 -9 -15 4 -3 12 1 19 10 14 17 11 19 -10
5z" />
    <path d="M9930 13886 c0 -2 7 -9 15 -16 l15 -12 0 10 c0 5 -7 12 -15 16 -8 3
-15 4 -15 2z" />
    <path d="M1109 13843 l-14 -18 18 14 c16 13 21 21 13 21 -2 0 -10 -8 -17 -17z" />
    <path d="M9990 13856 c0 -2 8 -10 18 -17 l17 -14 -14 18 c-13 16 -21 21 -21
13z" />
    <path d="M999 13773 l-14 -18 18 14 c16 13 21 21 13 21 -2 0 -10 -8 -17 -17z" />
    <path d="M10100 13786 c0 -2 8 -10 18 -17 l17 -14 -14 18 c-13 16 -21 21 -21
13z" />
    <path d="M884 13678 l-7 -11 11 7 c7 4 12 9 12 12 0 8 -9 4 -16 -8z" />
    <path d="M844 13648 l-7 -11 11 7 c7 4 12 9 12 12 0 8 -9 4 -16 -8z" />
    <path d="M664 13488 l-19 -23 23 19 c12 11 22 21 22 23 0 8 -8 2 -26 -19z" />
    <path d="M10430 13506 c0 -2 8 -10 18 -17 l17 -14 -14 18 c-13 16 -21 21 -21
13z" />
    <path d="M564 13378 l-7 -11 11 7 c7 4 12 9 12 12 0 8 -9 4 -16 -8z" />
    <path d="M10545 13380 c3 -5 8 -10 11 -10 3 0 2 5 -1 10 -3 6 -8 10 -11 10 -3
0 -2 -4 1 -10z" />
    <path d="M10605 13320 c3 -5 8 -10 11 -10 3 0 2 5 -1 10 -3 6 -8 10 -11 10 -3
0 -2 -4 1 -10z" />
    <path d="M474 13278 l-7 -11 11 7 c12 7 16 16 8 16 -3 0 -8 -5 -12 -12z" />
    <path d="M10630 13286 c0 -2 8 -10 18 -17 l17 -14 -14 18 c-13 16 -21 21 -21
13z" />
    <path d="M444 13238 l-7 -11 11 7 c7 4 12 9 12 12 0 8 -9 4 -16 -8z" />
    <path d="M10660 13246 c0 -2 8 -10 18 -17 l17 -14 -14 18 c-13 16 -21 21 -21
13z" />
    <path d="M364 13128 l-7 -11 11 7 c7 4 12 9 12 12 0 8 -9 4 -16 -8z" />
    <path d="M10740 13136 c0 -2 8 -10 18 -17 l17 -14 -14 18 c-13 16 -21 21 -21
13z" />
    <path d="M304 13028 l-7 -11 11 7 c12 7 16 16 8 16 -3 0 -8 -5 -12 -12z" />
    <path d="M276 12983 l-7 -18 12 12 c7 7 10 15 7 18 -3 3 -9 -2 -12 -12z" />
    <path d="M220 12885 c-19 -36 -7 -40 14 -5 9 17 13 30 8 30 -5 0 -15 -11 -22
-25z" />
    <path d="M10880 12900 c0 -17 39 -71 40 -55 0 6 -9 24 -20 40 l-20 30 0 -15z" />
    <path d="M181 12794 l1 -19 5 13 c3 7 2 16 -1 19 -3 4 -6 -2 -5 -13z" />
    <path d="M10931 12794 l1 -19 5 13 c3 7 2 16 -1 19 -3 4 -6 -2 -5 -13z" />
    <path d="M156 12733 l-7 -18 12 12 c7 7 10 15 7 18 -3 3 -9 -2 -12 -12z" />
    <path d="M66 12473 l-7 -18 12 12 c7 7 10 15 7 18 -3 3 -9 -2 -12 -12z" />
    <path d="M11040 12481 c0 -6 4 -13 10 -16 l10 -6 -6 15 c-7 18 -14 21 -14 7z" />
    <path d="M11061 12414 l1 -19 5 13 c3 7 2 16 -1 19 -3 4 -6 -2 -5 -13z" />
    <path d="M41 12344 l1 -19 5 13 c3 7 2 16 -1 19 -3 4 -6 -2 -5 -13z" />
    <path d="M11071 12344 l1 -19 5 13 c3 7 2 16 -1 19 -3 4 -6 -2 -5 -13z" />
    <path d="M31 12294 l1 -19 5 13 c3 7 2 16 -1 19 -3 4 -6 -2 -5 -13z" />
    <path d="M11081 12294 l1 -19 5 13 c3 7 2 16 -1 19 -3 4 -6 -2 -5 -13z" />
    <path d="M21 12244 l1 -19 5 13 c3 7 2 16 -1 19 -3 4 -6 -2 -5 -13z" />
    <path d="M11091 12244 l1 -19 5 13 c3 7 2 16 -1 19 -3 4 -6 -2 -5 -13z" />
    <path d="M11101 12194 l1 -19 5 13 c3 7 2 16 -1 19 -3 4 -6 -2 -5 -13z" />
    <path d="M11112 12030 c0 -14 2 -19 5 -12 2 6 2 18 0 25 -3 6 -5 1 -5 -13z" />
    <path d="M2 12020 c0 -14 2 -19 5 -12 2 6 2 18 0 25 -3 6 -5 1 -5 -13z" />
    <path d="M11112 5170 c0 -14 2 -19 5 -12 2 6 2 18 0 25 -3 6 -5 1 -5 -13z" />
    <path d="M2 5160 c0 -14 2 -19 5 -12 2 6 2 18 0 25 -3 6 -5 1 -5 -13z" />
    <path d="M11101 4994 l1 -19 5 13 c3 7 2 16 -1 19 -3 4 -6 -2 -5 -13z" />
    <path d="M31 4894 l1 -19 5 13 c3 7 2 16 -1 19 -3 4 -6 -2 -5 -13z" />
    <path d="M11081 4894 l1 -19 5 13 c3 7 2 16 -1 19 -3 4 -6 -2 -5 -13z" />
    <path d="M41 4844 l1 -19 5 13 c3 7 2 16 -1 19 -3 4 -6 -2 -5 -13z" />
    <path d="M11071 4844 l1 -19 5 13 c3 7 2 16 -1 19 -3 4 -6 -2 -5 -13z" />
    <path d="M11061 4774 l1 -19 5 13 c3 7 2 16 -1 19 -3 4 -6 -2 -5 -13z" />
    <path d="M66 4717 c3 -10 9 -15 12 -12 3 3 0 11 -7 18 l-12 12 7 -18z" />
    <path d="M11045 4719 c-4 -6 -5 -12 -2 -15 2 -3 7 2 10 11 7 17 1 20 -8 4z" />
    <path d="M91 4654 l1 -19 5 13 c3 7 2 16 -1 19 -3 4 -6 -2 -5 -13z" />
    <path d="M10940 4409 c-7 -11 -10 -23 -7 -25 2 -2 9 7 15 21 14 30 7 33 -8 4z" />
    <path d="M170 4415 c0 -5 5 -17 10 -25 5 -8 10 -10 10 -5 0 6 -5 17 -10 25 -5
8 -10 11 -10 5z" />
    <path d="M210 4330 c1 -16 27 -56 34 -49 2 2 -5 18 -15 34 l-19 30 0 -15z" />
    <path d="M10891 4314 c-17 -37 -8 -39 13 -4 9 17 13 30 8 30 -5 0 -14 -12 -21
-26z" />
    <path d="M276 4207 c3 -10 9 -15 12 -12 3 3 0 11 -7 18 l-12 12 7 -18z" />
    <path d="M10749 4063 l-14 -18 18 14 c9 7 17 15 17 17 0 8 -8 3 -21 -13z" />
    <path d="M365 4060 c3 -5 8 -10 11 -10 3 0 2 5 -1 10 -3 6 -8 10 -11 10 -3 0
-2 -4 1 -10z" />
    <path d="M10709 4003 l-14 -18 18 14 c9 7 17 15 17 17 0 8 -8 3 -21 -13z" />
    <path d="M405 4000 c3 -5 8 -10 11 -10 3 0 2 5 -1 10 -3 6 -8 10 -11 10 -3 0
-2 -4 1 -10z" />
    <path d="M430 3966 c0 -2 8 -10 18 -17 l17 -14 -14 18 c-13 16 -21 21 -21 13z" />
    <path d="M10669 3953 l-14 -18 18 14 c16 13 21 21 13 21 -2 0 -10 -8 -17 -17z" />
    <path d="M10639 3913 l-14 -18 18 14 c16 13 21 21 13 21 -2 0 -10 -8 -17 -17z" />
    <path d="M475 3910 c3 -5 8 -10 11 -10 3 0 2 5 -1 10 -3 6 -8 10 -11 10 -3 0
-2 -4 1 -10z" />
    <path d="M10604 3868 l-7 -11 11 7 c12 7 16 16 8 16 -3 0 -8 -5 -12 -12z" />
    <path d="M10564 3818 l-7 -11 11 7 c7 4 12 9 12 12 0 8 -9 4 -16 -8z" />
    <path d="M675 3690 c3 -5 8 -10 11 -10 3 0 2 5 -1 10 -3 6 -8 10 -11 10 -3 0
-2 -4 1 -10z" />
    <path d="M10434 3688 l-7 -11 11 7 c12 7 16 16 8 16 -3 0 -8 -5 -12 -12z" />
    <path d="M845 3540 c3 -5 8 -10 11 -10 3 0 2 5 -1 10 -3 6 -8 10 -11 10 -3 0
-2 -4 1 -10z" />
    <path d="M990 3426 c0 -2 8 -10 18 -17 l17 -14 -14 18 c-13 16 -21 21 -21 13z" />
    <path d="M10109 3413 l-14 -18 18 14 c16 13 21 21 13 21 -2 0 -10 -8 -17 -17z" />
    <path d="M1100 3356 c0 -2 8 -10 18 -17 l17 -14 -14 18 c-13 16 -21 21 -21 13z" />
    <path d="M9999 3343 l-14 -18 18 14 c9 7 17 15 17 17 0 8 -8 3 -21 -13z" />
    <path d="M1160 3321 c0 -5 7 -12 16 -15 l17 -6 -13 15 c-14 17 -20 19 -20 6z" />
    <path d="M9940 3315 l-13 -15 17 6 c9 3 16 10 16 15 0 13 -6 11 -20 -6z" />
    <path d="M9835 3259 l-40 -20 30 6 c17 3 37 13 45 21 18 18 14 17 -35 -7z" />
    <path d="M1260 3260 c0 -6 7 -10 15 -10 8 0 15 2 15 4 0 2 -7 6 -15 10 -8 3
-15 1 -15 -4z" />
    <path d="M1303 3243 c4 -3 10 -3 14 0 3 4 0 7 -7 7 -7 0 -10 -3 -7 -7z" />
    <path d="M1358 3213 c7 -3 16 -2 19 1 4 3 -2 6 -13 5 l-19 -1 13 -5z" />
    <path d="M9753 3213 c4 -3 10 -3 14 0 3 4 0 7 -7 7 -7 0 -10 -3 -7 -7z" />
    <path d="M1407 3199 c7 -7 15 -10 18 -7 3 3 -2 9 -12 12 l-18 7 12 -12z" />
    <path d="M9698 3193 c7 -3 16 -2 19 1 4 3 -2 6 -13 5 l-19 -1 13 -5z" />
    <path d="M9658 3173 c7 -3 16 -2 19 1 4 3 -2 6 -13 5 l-19 -1 13 -5z" />
    <path d="M9433 3103 c4 -3 10 -3 14 0 3 4 0 7 -7 7 -7 0 -10 -3 -7 -7z" />
    <path d="M1733 3093 c4 -3 10 -3 14 0 3 4 0 7 -7 7 -7 0 -10 -3 -7 -7z" />
    <path d="M1808 3073 c7 -3 16 -2 19 1 4 3 -2 6 -13 5 l-19 -1 13 -5z" />
    <path d="M9298 3073 c7 -3 16 -2 19 1 4 3 -2 6 -13 5 l-19 -1 13 -5z" />
    <path d="M9258 3063 c7 -3 16 -2 19 1 4 3 -2 6 -13 5 l-19 -1 13 -5z" />
    <path d="M1958 3053 c7 -3 16 -2 19 1 4 3 -2 6 -13 5 l-19 -1 13 -5z" />
    <path d="M9148 3053 c7 -3 16 -2 19 1 4 3 -2 6 -13 5 l-19 -1 13 -5z" />
    <path d="M2018 3043 c7 -3 16 -2 19 1 4 3 -2 6 -13 5 l-19 -1 13 -5z" />
    <path d="M9088 3043 c7 -3 16 -2 19 1 4 3 -2 6 -13 5 l-19 -1 13 -5z" />
    <path d="M8988 3033 c7 -3 16 -2 19 1 4 3 -2 6 -13 5 l-19 -1 13 -5z" />
  </g>
  <g transform="translate(0.000000,1618.000000) scale(0.100000,-0.100000)" fill="#2d2d2d" stroke="none">
    <path d="M2183 14153 c9 -2 25 -2 35 0 9 3 1 5 -18 5 -19 0 -27 -2 -17 -5z" />
    <path d="M8903 14153 c9 -2 25 -2 35 0 9 3 1 5 -18 5 -19 0 -27 -2 -17 -5z" />
    <path d="M2043 14143 c4 -3 10 -3 14 0 3 4 0 7 -7 7 -7 0 -10 -3 -7 -7z" />
    <path d="M9068 14143 c7 -3 16 -2 19 1 4 3 -2 6 -13 5 l-19 -1 13 -5z" />
    <path d="M1973 14133 c4 -3 10 -3 14 0 3 4 0 7 -7 7 -7 0 -10 -3 -7 -7z" />
    <path d="M9133 14133 c4 -3 10 -3 14 0 3 4 0 7 -7 7 -7 0 -10 -3 -7 -7z" />
    <path d="M9187 14129 c7 -7 15 -10 18 -7 3 3 -2 9 -12 12 l-18 7 12 -12z" />
    <path d="M1913 14123 c4 -3 10 -3 14 0 3 4 0 7 -7 7 -7 0 -10 -3 -7 -7z" />
    <path d="M9333 14103 c4 -3 10 -3 14 0 3 4 0 7 -7 7 -7 0 -10 -3 -7 -7z" />
    <path d="M9685 14000 c3 -5 8 -10 11 -10 3 0 2 5 -1 10 -3 6 -8 10 -11 10 -3
0 -2 -4 1 -10z" />
    <path d="M9725 13980 c3 -5 8 -10 11 -10 3 0 2 5 -1 10 -3 6 -8 10 -11 10 -3
0 -2 -4 1 -10z" />
    <path d="M1314 13948 l-7 -11 11 7 c12 7 16 16 8 16 -3 0 -8 -5 -12 -12z" />
    <path d="M9795 13950 c3 -5 8 -10 11 -10 3 0 2 5 -1 10 -3 6 -8 10 -11 10 -3
0 -2 -4 1 -10z" />
    <path d="M1244 13919 l-19 -22 23 12 c12 6 22 16 22 21 0 15 -5 12 -26 -11z" />
    <path d="M9850 13930 c0 -7 3 -10 7 -7 3 4 3 10 0 14 -4 3 -7 0 -7 -7z" />
    <path d="M9877 13909 c7 -7 15 -10 18 -7 3 3 -2 9 -12 12 l-18 7 12 -12z" />
    <path d="M1155 13870 c-3 -5 -1 -10 4 -10 6 0 11 5 11 10 0 6 -2 10 -4 10 -3
0 -8 -4 -11 -10z" />
    <path d="M9950 13870 c0 -5 5 -10 11 -10 5 0 7 5 4 10 -3 6 -8 10 -11 10 -2 0
-4 -4 -4 -10z" />
    <path d="M985 13760 c-3 -5 -1 -10 4 -10 6 0 11 5 11 10 0 6 -2 10 -4 10 -3 0
-8 -4 -11 -10z" />
    <path d="M930 13719 c0 -5 5 -7 10 -4 6 3 10 8 10 11 0 2 -4 4 -10 4 -5 0 -10
-5 -10 -11z" />
    <path d="M10175 13720 c3 -5 11 -10 16 -10 6 0 7 5 4 10 -3 6 -11 10 -16 10
-6 0 -7 -4 -4 -10z" />
    <path d="M809 13623 l-14 -18 18 14 c9 7 17 15 17 17 0 8 -8 3 -21 -13z" />
    <path d="M10297 13629 c7 -7 15 -10 18 -7 3 3 -2 9 -12 12 l-18 7 12 -12z" />
    <path d="M574 13388 l-7 -11 11 7 c7 4 12 9 12 12 0 8 -9 4 -16 -8z" />
    <path d="M10720 13170 c0 -7 3 -10 7 -7 3 4 3 10 0 14 -4 3 -7 0 -7 -7z" />
    <path d="M10825 13000 c3 -5 8 -10 11 -10 3 0 2 5 -1 10 -3 6 -8 10 -11 10 -3
0 -2 -4 1 -10z" />
    <path d="M250 12940 c0 -7 3 -10 7 -7 3 4 3 10 0 14 -4 3 -7 0 -7 -7z" />
    <path d="M10860 12941 c0 -6 4 -13 10 -16 l10 -6 -6 15 c-7 18 -14 21 -14 7z" />
    <path d="M235 12910 c-3 -5 -1 -10 4 -10 6 0 11 5 11 10 0 6 -2 10 -4 10 -3 0
-8 -4 -11 -10z" />
    <path d="M220 12879 c0 -5 5 -7 10 -4 6 3 10 8 10 11 0 2 -4 4 -10 4 -5 0 -10
-5 -10 -11z" />
    <path d="M10885 12880 c3 -5 8 -10 11 -10 2 0 4 5 4 10 0 6 -5 10 -11 10 -5 0
-7 -4 -4 -10z" />
    <path d="M174 12778 l-7 -11 11 7 c7 4 12 9 12 12 0 8 -9 4 -16 -8z" />
    <path d="M10935 12780 c3 -5 8 -10 11 -10 3 0 2 5 -1 10 -3 6 -8 10 -11 10 -3
0 -2 -4 1 -10z" />
    <path d="M86 12523 l-7 -18 12 12 c7 7 10 15 7 18 -3 3 -9 -2 -12 -12z" />
    <path d="M60 12440 c0 -7 3 -10 7 -7 3 4 3 10 0 14 -4 3 -7 0 -7 -7z" />
    <path d="M11050 12441 c0 -6 4 -13 10 -16 l10 -6 -6 15 c-7 18 -14 21 -14 7z" />
    <path d="M46 12363 l-7 -18 12 12 c7 7 10 15 7 18 -3 3 -9 -2 -12 -12z" />
    <path d="M36 12323 l-7 -18 12 12 c7 7 10 15 7 18 -3 3 -9 -2 -12 -12z" />
    <path d="M11070 12331 c0 -6 4 -13 10 -16 l10 -6 -6 15 c-7 18 -14 21 -14 7z" />
    <path d="M11 12104 l1 -19 5 13 c3 7 2 16 -1 19 -3 4 -6 -2 -5 -13z" />
    <path d="M11113 11965 l0 -40 4 23 c2 12 2 30 0 40 -3 9 -5 -1 -4 -23z" />
    <path d="M2 11960 c0 -19 2 -27 5 -17 2 9 2 25 0 35 -3 9 -5 1 -5 -18z" />
    <path d="M3 5225 l0 -40 4 23 c2 12 2 30 0 40 -3 9 -5 -1 -4 -23z" />
    <path d="M11112 5230 c0 -19 2 -27 5 -17 2 9 2 25 0 35 -3 9 -5 1 -5 -18z" />
    <path d="M10 5080 c0 -7 3 -10 7 -7 3 4 3 10 0 14 -4 3 -7 0 -7 -7z" />
    <path d="M20 4950 c0 -7 3 -10 7 -7 3 4 3 10 0 14 -4 3 -7 0 -7 -7z" />
    <path d="M11090 4950 c0 -7 3 -10 7 -7 3 4 3 10 0 14 -4 3 -7 0 -7 -7z" />
    <path d="M36 4867 c3 -10 9 -15 12 -12 3 3 0 11 -7 18 l-12 12 7 -18z" />
    <path d="M11075 4869 c-4 -6 -5 -12 -2 -15 2 -3 7 2 10 11 7 17 1 20 -8 4z" />
    <path d="M46 4827 c3 -10 9 -15 12 -12 3 3 0 11 -7 18 l-12 12 7 -18z" />
    <path d="M156 4457 c3 -10 9 -15 12 -12 3 3 0 11 -7 18 l-12 12 7 -18z" />
    <path d="M10905 4340 c-3 -5 -1 -10 4 -10 6 0 11 5 11 10 0 6 -2 10 -4 10 -3
0 -8 -4 -11 -10z" />
    <path d="M235 4280 c3 -5 8 -10 11 -10 2 0 4 5 4 10 0 6 -5 10 -11 10 -5 0 -7
-4 -4 -10z" />
    <path d="M10865 4259 c-4 -6 -5 -12 -2 -15 2 -3 7 2 10 11 7 17 1 20 -8 4z" />
    <path d="M250 4250 c0 -7 3 -10 7 -7 3 4 3 10 0 14 -4 3 -7 0 -7 -7z" />
    <path d="M10824 4188 l-7 -11 11 7 c12 7 16 16 8 16 -3 0 -8 -5 -12 -12z" />
    <path d="M10720 4020 c0 -7 3 -10 7 -7 3 4 3 10 0 14 -4 3 -7 0 -7 -7z" />
    <path d="M765 3610 c3 -5 8 -10 11 -10 3 0 2 5 -1 10 -3 6 -8 10 -11 10 -3 0
-2 -4 1 -10z" />
    <path d="M930 3470 c0 -5 5 -10 11 -10 5 0 7 5 4 10 -3 6 -8 10 -11 10 -2 0
-4 -4 -4 -10z" />
    <path d="M10175 3470 c-3 -5 -2 -10 4 -10 5 0 13 5 16 10 3 6 2 10 -4 10 -5 0
-13 -4 -16 -10z" />
    <path d="M985 3430 c3 -5 8 -10 11 -10 2 0 4 5 4 10 0 6 -5 10 -11 10 -5 0 -7
-4 -4 -10z" />
    <path d="M1075 3370 c3 -5 8 -10 11 -10 3 0 2 5 -1 10 -3 6 -8 10 -11 10 -3 0
-2 -4 1 -10z" />
    <path d="M10033 3363 c4 -3 10 -3 14 0 3 4 0 7 -7 7 -7 0 -10 -3 -7 -7z" />
    <path d="M1155 3320 c3 -5 8 -10 11 -10 2 0 4 5 4 10 0 6 -5 10 -11 10 -5 0
-7 -4 -4 -10z" />
    <path d="M9950 3319 c0 -5 5 -7 10 -4 6 3 10 8 10 11 0 2 -4 4 -10 4 -5 0 -10
-5 -10 -11z" />
    <path d="M1244 3271 c21 -23 26 -26 26 -11 0 5 -10 15 -22 21 l-23 12 19 -22z" />
    <path d="M9875 3280 l-6 -10 15 6 c18 7 21 14 7 14 -6 0 -13 -4 -16 -10z" />
    <path d="M9850 3260 c0 -7 3 -10 7 -7 3 4 3 10 0 14 -4 3 -7 0 -7 -7z" />
    <path d="M1315 3240 c3 -5 8 -10 11 -10 3 0 2 5 -1 10 -3 6 -8 10 -11 10 -3 0
-2 -4 1 -10z" />
    <path d="M9794 3238 l-7 -11 11 7 c7 4 12 9 12 12 0 8 -9 4 -16 -8z" />
    <path d="M9684 3188 l-7 -11 11 7 c7 4 12 9 12 12 0 8 -9 4 -16 -8z" />
    <path d="M1620 3126 c0 -2 7 -7 16 -10 l15 -6 -6 10 c-6 10 -25 14 -25 6z" />
    <path d="M9333 3083 c4 -3 10 -3 14 0 3 4 0 7 -7 7 -7 0 -10 -3 -7 -7z" />
    <path d="M1863 3063 c4 -3 10 -3 14 0 3 4 0 7 -7 7 -7 0 -10 -3 -7 -7z" />
    <path d="M9243 3063 c4 -3 10 -3 14 0 3 4 0 7 -7 7 -7 0 -10 -3 -7 -7z" />
    <path d="M1973 3053 c4 -3 10 -3 14 0 3 4 0 7 -7 7 -7 0 -10 -3 -7 -7z" />
    <path d="M9133 3053 c4 -3 10 -3 14 0 3 4 0 7 -7 7 -7 0 -10 -3 -7 -7z" />
    <path d="M2043 3043 c4 -3 10 -3 14 0 3 4 0 7 -7 7 -7 0 -10 -3 -7 -7z" />
    <path d="M9068 3043 c7 -3 16 -2 19 1 4 3 -2 6 -13 5 l-19 -1 13 -5z" />
    <path d="M2183 3033 c9 -2 25 -2 35 0 9 3 1 5 -18 5 -19 0 -27 -2 -17 -5z" />
    <path d="M8903 3033 c9 -2 25 -2 35 0 9 3 1 5 -18 5 -19 0 -27 -2 -17 -5z" />
  </g>
  <g transform="translate(0.000000,1618.000000) scale(0.100000,-0.100000)" fill="#31a558" stroke="none">
    <path d="M2213 13143 c9 -2 23 -2 30 0 6 3 -1 5 -18 5 l-30 0 18 -5z" />
    <path d="M8888 13143 c6 -2 18 -2 25 0 6 3 1 5 -13 5 -14 0 -19 -2 -12 -5z" />
    <path d="M2108 13133 c7 -3 16 -2 19 1 4 3 -2 6 -13 5 l-19 -1 13 -5z" />
    <path d="M8998 13133 c7 -3 16 -2 19 1 4 3 -2 6 -13 5 l-19 -1 13 -5z" />
    <path d="M2058 13123 c7 -3 16 -2 19 1 4 3 -2 6 -13 5 l-19 -1 13 -5z" />
    <path d="M9048 13123 c7 -3 16 -2 19 1 4 3 -2 6 -13 5 l-19 -1 13 -5z" />
    <path d="M1938 13103 c7 -3 16 -2 19 1 4 3 -2 6 -13 5 l-19 -1 13 -5z" />
    <path d="M9168 13103 c7 -3 16 -2 19 1 4 3 -2 6 -13 5 l-19 -1 13 -5z" />
    <path d="M1903 13093 c4 -3 10 -3 14 0 3 4 0 7 -7 7 -7 0 -10 -3 -7 -7z" />
    <path d="M9203 13093 c4 -3 10 -3 14 0 3 4 0 7 -7 7 -7 0 -10 -3 -7 -7z" />
    <path d="M1860 13080 l-15 -10 12 0 c6 0 15 5 18 10 8 12 4 12 -15 0z" />
    <path d="M9247 13079 c7 -7 15 -10 18 -7 3 3 -2 9 -12 12 l-18 7 12 -12z" />
    <path d="M1770 13045 c-14 -8 -20 -14 -14 -15 5 0 19 7 30 15 24 18 16 19 -16
0z" />
    <path d="M9347 13039 c7 -7 15 -10 18 -7 3 3 -2 9 -12 12 l-18 7 12 -12z" />
    <path d="M1723 13023 c4 -3 10 -3 14 0 3 4 0 7 -7 7 -7 0 -10 -3 -7 -7z" />
    <path d="M9383 13023 c4 -3 10 -3 14 0 3 4 0 7 -7 7 -7 0 -10 -3 -7 -7z" />
    <path d="M1663 12993 c4 -3 10 -3 14 0 3 4 0 7 -7 7 -7 0 -10 -3 -7 -7z" />
    <path d="M1630 12970 l-15 -10 12 0 c6 0 15 5 18 10 8 12 4 12 -15 0z" />
    <path d="M1594 12948 l-7 -11 11 7 c12 7 16 16 8 16 -3 0 -8 -5 -12 -12z" />
    <path d="M9513 12953 c4 -3 10 -3 14 0 3 4 0 7 -7 7 -7 0 -10 -3 -7 -7z" />
    <path d="M9580 12906 c0 -2 8 -10 18 -17 l17 -14 -14 18 c-13 16 -21 21 -21
13z" />
    <path d="M1484 12868 l-7 -11 11 7 c7 4 12 9 12 12 0 8 -9 4 -16 -8z" />
    <path d="M9625 12870 c3 -5 8 -10 11 -10 2 0 4 5 4 10 0 6 -5 10 -11 10 -5 0
-7 -4 -4 -10z" />
    <path d="M1434 12818 l-7 -11 11 7 c12 7 16 16 8 16 -3 0 -8 -5 -12 -12z" />
    <path d="M1319 12703 l-14 -18 18 14 c16 13 21 21 13 21 -2 0 -10 -8 -17 -17z" />
    <path d="M9795 12700 c3 -5 8 -10 11 -10 3 0 2 5 -1 10 -3 6 -8 10 -11 10 -3
0 -2 -4 1 -10z" />
    <path d="M9870 12610 c12 -16 24 -30 26 -30 3 0 -3 14 -13 30 -9 17 -21 30
-26 30 -5 0 1 -13 13 -30z" />
    <path d="M1230 12599 c0 -5 5 -7 10 -4 6 3 10 8 10 11 0 2 -4 4 -10 4 -5 0
-10 -5 -10 -11z" />
    <path d="M1196 12543 l-7 -18 12 12 c7 7 10 15 7 18 -3 3 -9 -2 -12 -12z" />
    <path d="M9910 12552 c0 -5 7 -15 15 -22 8 -7 15 -9 15 -6 0 4 -7 14 -15 22
-8 9 -15 11 -15 6z" />
    <path d="M1156 12483 l-7 -18 12 12 c7 7 10 15 7 18 -3 3 -9 -2 -12 -12z" />
    <path d="M9950 12491 c0 -6 4 -13 10 -16 l10 -6 -6 15 c-7 18 -14 21 -14 7z" />
    <path d="M1133 12428 c-15 -20 -25 -38 -20 -38 3 0 12 11 21 25 17 26 16 35
-1 13z" />
    <path d="M9989 12415 c17 -33 31 -51 31 -40 0 6 -10 21 -21 35 l-20 25 10 -20z" />
    <path d="M1084 12318 l-7 -11 11 7 c12 7 16 16 8 16 -3 0 -8 -5 -12 -12z" />
    <path d="M10032 12308 c7 -15 15 -23 17 -17 2 6 -4 18 -13 27 l-16 17 12 -27z" />
    <path d="M1040 12180 c0 -7 3 -10 7 -7 3 4 3 10 0 14 -4 3 -7 0 -7 -7z" />
    <path d="M10070 12181 c0 -6 4 -13 10 -16 l10 -6 -6 15 c-7 18 -14 21 -14 7z" />
    <path d="M1021 12044 l1 -19 5 13 c3 7 2 16 -1 19 -3 4 -6 -2 -5 -13z" />
    <path d="M10091 12044 l1 -19 5 13 c3 7 2 16 -1 19 -3 4 -6 -2 -5 -13z" />
    <path d="M1012 11930 c0 -14 2 -19 5 -12 2 6 2 18 0 25 -3 6 -5 1 -5 -13z" />
    <path d="M10102 11930 c0 -14 2 -19 5 -12 2 6 2 18 0 25 -3 6 -5 1 -5 -13z" />
    <path d="M1012 5255 l0 -30 5 18 c2 9 2 23 0 30 -3 6 -5 -1 -5 -18z" />
    <path d="M10102 5255 l0 -30 5 18 c2 9 2 23 0 30 -3 6 -5 -1 -5 -18z" />
    <path d="M1021 5144 l1 -19 5 13 c3 7 2 16 -1 19 -3 4 -6 -2 -5 -13z" />
    <path d="M10091 5144 l1 -19 5 13 c3 7 2 16 -1 19 -3 4 -6 -2 -5 -13z" />
    <path d="M1031 5094 l1 -19 5 13 c3 7 2 16 -1 19 -3 4 -6 -2 -5 -13z" />
    <path d="M10075 5019 c-4 -6 -5 -12 -2 -15 2 -3 7 2 10 11 7 17 1 20 -8 4z" />
    <path d="M1040 5010 c0 -7 3 -10 7 -7 3 4 3 10 0 14 -4 3 -7 0 -7 -7z" />
    <path d="M1060 4940 c0 -7 3 -10 7 -7 3 4 3 10 0 14 -4 3 -7 0 -7 -7z" />
    <path d="M10050 4940 c0 -7 3 -10 7 -7 3 4 3 10 0 14 -4 3 -7 0 -7 -7z" />
    <path d="M10032 4882 l-12 -27 16 17 c9 9 15 21 13 27 -2 6 -10 -2 -17 -17z" />
    <path d="M1085 4870 c3 -5 8 -10 11 -10 3 0 2 5 -1 10 -3 6 -8 10 -11 10 -3 0
-2 -4 1 -10z" />
    <path d="M9997 4791 c-9 -16 -17 -33 -17 -38 0 -4 9 7 21 26 11 18 18 35 17
37 -2 2 -12 -10 -21 -25z" />
    <path d="M1121 4780 c14 -31 19 -36 19 -24 0 6 -7 19 -16 30 l-15 19 12 -25z" />
    <path d="M1156 4707 c3 -10 9 -15 12 -12 3 3 0 11 -7 18 l-12 12 7 -18z" />
    <path d="M9955 4709 c-4 -6 -5 -12 -2 -15 2 -3 7 2 10 11 7 17 1 20 -8 4z" />
    <path d="M9925 4660 c-3 -5 -1 -10 4 -10 6 0 11 5 11 10 0 6 -2 10 -4 10 -3 0
-8 -4 -11 -10z" />
    <path d="M1226 4595 c4 -8 11 -15 16 -15 l10 0 -12 15 c-7 8 -14 15 -16 15 -2
0 -1 -7 2 -15z" />
    <path d="M9866 4575 c-9 -14 -13 -25 -9 -25 10 0 36 40 30 46 -2 3 -12 -7 -21
-21z" />
    <path d="M1325 4480 c3 -5 8 -10 11 -10 3 0 2 5 -1 10 -3 6 -8 10 -11 10 -3 0
-2 -4 1 -10z" />
    <path d="M9664 4348 l-7 -11 11 7 c7 4 12 9 12 12 0 8 -9 4 -16 -8z" />
    <path d="M1480 4326 c0 -2 8 -10 18 -17 l17 -14 -14 18 c-13 16 -21 21 -21 13z" />
    <path d="M9620 4315 l-13 -15 17 6 c9 3 16 10 16 15 0 13 -6 11 -20 -6z" />
    <path d="M9584 4288 l-7 -11 11 7 c7 4 12 9 12 12 0 8 -9 4 -16 -8z" />
    <path d="M1595 4240 c3 -5 8 -10 11 -10 3 0 2 5 -1 10 -3 6 -8 10 -11 10 -3 0
-2 -4 1 -10z" />
    <path d="M9513 4233 c4 -3 10 -3 14 0 3 4 0 7 -7 7 -7 0 -10 -3 -7 -7z" />
    <path d="M1620 4226 c0 -2 7 -7 16 -10 l15 -6 -6 10 c-6 10 -25 14 -25 6z" />
    <path d="M1663 4193 c4 -3 10 -3 14 0 3 4 0 7 -7 7 -7 0 -10 -3 -7 -7z" />
    <path d="M1720 4166 c0 -2 7 -7 16 -10 l15 -6 -6 10 c-6 10 -25 14 -25 6z" />
    <path d="M9375 4160 l-6 -10 15 6 c18 7 21 14 7 14 -6 0 -13 -4 -16 -10z" />
    <path d="M1770 4146 c0 -2 7 -7 16 -10 l15 -6 -6 10 c-6 10 -25 14 -25 6z" />
    <path d="M1850 4116 c0 -2 7 -7 16 -10 l15 -6 -6 10 c-6 10 -25 14 -25 6z" />
    <path d="M9245 4110 l-6 -10 15 6 c18 7 21 14 7 14 -6 0 -13 -4 -16 -10z" />
    <path d="M1903 4093 c4 -3 10 -3 14 0 3 4 0 7 -7 7 -7 0 -10 -3 -7 -7z" />
    <path d="M9203 4093 c4 -3 10 -3 14 0 3 4 0 7 -7 7 -7 0 -10 -3 -7 -7z" />
    <path d="M1938 4083 c7 -3 16 -2 19 1 4 3 -2 6 -13 5 l-19 -1 13 -5z" />
    <path d="M9168 4083 c7 -3 16 -2 19 1 4 3 -2 6 -13 5 l-19 -1 13 -5z" />
    <path d="M2058 4063 c7 -3 16 -2 19 1 4 3 -2 6 -13 5 l-19 -1 13 -5z" />
    <path d="M9048 4063 c7 -3 16 -2 19 1 4 3 -2 6 -13 5 l-19 -1 13 -5z" />
    <path d="M2108 4053 c7 -3 16 -2 19 1 4 3 -2 6 -13 5 l-19 -1 13 -5z" />
    <path d="M8998 4053 c7 -3 16 -2 19 1 4 3 -2 6 -13 5 l-19 -1 13 -5z" />
    <path d="M2213 4043 c9 -2 23 -2 30 0 6 3 -1 5 -18 5 l-30 0 18 -5z" />
    <path d="M8888 4043 c6 -2 18 -2 25 0 6 3 1 5 -13 5 -14 0 -19 -2 -12 -5z" />
  </g>
  <g transform="translate(0.000000,1618.000000) scale(0.100000,-0.100000)" fill="#0d2a17" stroke="none">
    <path d="M9825 13940 c3 -5 8 -10 11 -10 3 0 2 5 -1 10 -3 6 -8 10 -11 10 -3
0 -2 -4 1 -10z" />
    <path d="M1055 13810 c-3 -5 -2 -10 4 -10 5 0 13 5 16 10 3 6 2 10 -4 10 -5 0
-13 -4 -16 -10z" />
    <path d="M10050 13810 c0 -5 5 -10 11 -10 5 0 7 5 4 10 -3 6 -8 10 -11 10 -2
0 -4 -4 -4 -10z" />
    <path d="M890 13689 c0 -5 5 -7 10 -4 6 3 10 8 10 11 0 2 -4 4 -10 4 -5 0 -10
-5 -10 -11z" />
    <path d="M10215 13690 c3 -5 11 -10 16 -10 6 0 7 5 4 10 -3 6 -11 10 -16 10
-6 0 -7 -4 -4 -10z" />
    <path d="M850 13659 c0 -5 5 -7 10 -4 6 3 10 8 10 11 0 2 -4 4 -10 4 -5 0 -10
-5 -10 -11z" />
    <path d="M10255 13660 c3 -5 11 -10 16 -10 6 0 7 5 4 10 -3 6 -11 10 -16 10
-6 0 -7 -4 -4 -10z" />
    <path d="M764 13578 l-7 -11 11 7 c12 7 16 16 8 16 -3 0 -8 -5 -12 -12z" />
    <path d="M537 13353 c-4 -3 -7 -11 -7 -17 l0 -10 12 12 c6 6 9 14 7 17 -3 3
-9 2 -12 -2z" />
    <path d="M2143 13143 c4 -3 10 -3 14 0 3 4 0 7 -7 7 -7 0 -10 -3 -7 -7z" />
    <path d="M8963 13143 c4 -3 10 -3 14 0 3 4 0 7 -7 7 -7 0 -10 -3 -7 -7z" />
    <path d="M9020 13136 c0 -2 7 -7 16 -10 l15 -6 -6 10 c-6 10 -25 14 -25 6z" />
    <path d="M2033 13123 c4 -3 10 -3 14 0 3 4 0 7 -7 7 -7 0 -10 -3 -7 -7z" />
    <path d="M9073 13123 c4 -3 10 -3 14 0 3 4 0 7 -7 7 -7 0 -10 -3 -7 -7z" />
    <path d="M1993 13113 c4 -3 10 -3 14 0 3 4 0 7 -7 7 -7 0 -10 -3 -7 -7z" />
    <path d="M9113 13113 c4 -3 10 -3 14 0 3 4 0 7 -7 7 -7 0 -10 -3 -7 -7z" />
    <path d="M347 13103 c-4 -3 -7 -11 -7 -17 l0 -10 12 12 c6 6 9 14 7 17 -3 3
-9 2 -12 -2z" />
    <path d="M1873 13083 c4 -3 10 -3 14 0 3 4 0 7 -7 7 -7 0 -10 -3 -7 -7z" />
    <path d="M9233 13083 c4 -3 10 -3 14 0 3 4 0 7 -7 7 -7 0 -10 -3 -7 -7z" />
    <path d="M9320 13056 c0 -2 7 -7 16 -10 l15 -6 -6 10 c-6 10 -25 14 -25 6z" />
    <path d="M9485 12970 c3 -5 8 -10 11 -10 3 0 2 5 -1 10 -3 6 -8 10 -11 10 -3
0 -2 -4 1 -10z" />
    <path d="M1520 12895 l-12 -15 10 0 c5 0 12 7 16 15 3 8 4 15 2 15 -2 0 -9 -7
-16 -15z" />
    <path d="M215 12880 c-3 -5 -1 -10 4 -10 6 0 11 5 11 10 0 6 -2 10 -4 10 -3 0
-8 -4 -11 -10z" />
    <path d="M10890 12880 c0 -5 5 -10 11 -10 5 0 7 5 4 10 -3 6 -8 10 -11 10 -2
0 -4 -4 -4 -10z" />
    <path d="M10903 12853 c4 -3 10 -3 14 0 3 4 0 7 -7 7 -7 0 -10 -3 -7 -7z" />
    <path d="M1344 12738 l-7 -11 11 7 c12 7 16 16 8 16 -3 0 -8 -5 -12 -12z" />
    <path d="M9760 12746 c0 -2 8 -10 18 -17 l17 -14 -14 18 c-13 16 -21 21 -21
13z" />
    <path d="M10980 12670 c0 -7 3 -10 7 -7 3 4 3 10 0 14 -4 3 -7 0 -7 -7z" />
    <path d="M9850 12640 c0 -5 5 -10 11 -10 5 0 7 5 4 10 -3 6 -8 10 -11 10 -2 0
-4 -4 -4 -10z" />
    <path d="M1235 12610 c-3 -5 -1 -10 4 -10 6 0 11 5 11 10 0 6 -2 10 -4 10 -3
0 -8 -4 -11 -10z" />
    <path d="M9870 12610 c0 -5 5 -10 11 -10 5 0 7 5 4 10 -3 6 -8 10 -11 10 -2 0
-4 -4 -4 -10z" />
    <path d="M9923 12533 c4 -3 10 -3 14 0 3 4 0 7 -7 7 -7 0 -10 -3 -7 -7z" />
    <path d="M1100 12360 c0 -7 3 -10 7 -7 3 4 3 10 0 14 -4 3 -7 0 -7 -7z" />
    <path d="M10040 12300 c0 -7 3 -10 7 -7 3 4 3 10 0 14 -4 3 -7 0 -7 -7z" />
    <path d="M1045 12199 c-4 -6 -5 -12 -2 -15 2 -3 7 2 10 11 7 17 1 20 -8 4z" />
    <path d="M10066 12197 c3 -10 9 -15 12 -12 3 3 0 11 -7 18 l-12 12 7 -18z" />
    <path d="M10080 12160 c0 -7 3 -10 7 -7 3 4 3 10 0 14 -4 3 -7 0 -7 -7z" />
    <path d="M1030 12120 c0 -7 3 -10 7 -7 3 4 3 10 0 14 -4 3 -7 0 -7 -7z" />
    <path d="M1020 12060 c0 -7 3 -10 7 -7 3 4 3 10 0 14 -4 3 -7 0 -7 -7z" />
    <path d="M10090 12060 c0 -7 3 -10 7 -7 3 4 3 10 0 14 -4 3 -7 0 -7 -7z" />
    <path d="M1015 12019 c-4 -6 -5 -12 -2 -15 2 -3 7 2 10 11 7 17 1 20 -8 4z" />
    <path d="M10096 12017 c3 -10 9 -15 12 -12 3 3 0 11 -7 18 l-12 12 7 -18z" />
    <path d="M1010 5181 c0 -6 4 -13 10 -16 l10 -6 -6 15 c-7 18 -14 21 -14 7z" />
    <path d="M10096 5173 l-7 -18 12 12 c7 7 10 15 7 18 -3 3 -9 -2 -12 -12z" />
    <path d="M1020 5130 c0 -7 3 -10 7 -7 3 4 3 10 0 14 -4 3 -7 0 -7 -7z" />
    <path d="M10090 5130 c0 -7 3 -10 7 -7 3 4 3 10 0 14 -4 3 -7 0 -7 -7z" />
    <path d="M1030 5070 c0 -7 3 -10 7 -7 3 4 3 10 0 14 -4 3 -7 0 -7 -7z" />
    <path d="M10080 5030 c0 -7 3 -10 7 -7 3 4 3 10 0 14 -4 3 -7 0 -7 -7z" />
    <path d="M10040 4890 c0 -7 3 -10 7 -7 3 4 3 10 0 14 -4 3 -7 0 -7 -7z" />
    <path d="M1100 4830 c0 -7 3 -10 7 -7 3 4 3 10 0 14 -4 3 -7 0 -7 -7z" />
    <path d="M9920 4649 c0 -5 5 -7 10 -4 6 3 10 8 10 11 0 2 -4 4 -10 4 -5 0 -10
-5 -10 -11z" />
    <path d="M1235 4580 c3 -5 8 -10 11 -10 2 0 4 5 4 10 0 6 -5 10 -11 10 -5 0
-7 -4 -4 -10z" />
    <path d="M9870 4579 c0 -5 5 -7 10 -4 6 3 10 8 10 11 0 2 -4 4 -10 4 -5 0 -10
-5 -10 -11z" />
    <path d="M9850 4549 c0 -5 5 -7 10 -4 6 3 10 8 10 11 0 2 -4 4 -10 4 -5 0 -10
-5 -10 -11z" />
    <path d="M1340 4456 c0 -2 8 -10 18 -17 l17 -14 -14 18 c-13 16 -21 21 -21 13z" />
    <path d="M9759 4443 l-14 -18 18 14 c16 13 21 21 13 21 -2 0 -10 -8 -17 -17z" />
    <path d="M1423 4373 c4 -3 10 -3 14 0 3 4 0 7 -7 7 -7 0 -10 -3 -7 -7z" />
    <path d="M9683 4373 c4 -3 10 -3 14 0 3 4 0 7 -7 7 -7 0 -10 -3 -7 -7z" />
    <path d="M10903 4333 c4 -3 10 -3 14 0 3 4 0 7 -7 7 -7 0 -10 -3 -7 -7z" />
    <path d="M213 4313 c4 -3 10 -3 14 0 3 4 0 7 -7 7 -7 0 -10 -3 -7 -7z" />
    <path d="M10893 4313 c4 -3 10 -3 14 0 3 4 0 7 -7 7 -7 0 -10 -3 -7 -7z" />
    <path d="M1525 4290 c3 -5 8 -10 11 -10 3 0 2 5 -1 10 -3 6 -8 10 -11 10 -3 0
-2 -4 1 -10z" />
    <path d="M9484 4218 l-7 -11 11 7 c7 4 12 9 12 12 0 8 -9 4 -16 -8z" />
    <path d="M9330 4140 l-15 -10 12 0 c6 0 15 5 18 10 8 12 4 12 -15 0z" />
    <path d="M340 4101 c0 -5 5 -13 10 -16 6 -3 10 -2 10 4 0 5 -4 13 -10 16 -5 3
-10 2 -10 -4z" />
    <path d="M1873 4103 c4 -3 10 -3 14 0 3 4 0 7 -7 7 -7 0 -10 -3 -7 -7z" />
    <path d="M9233 4103 c4 -3 10 -3 14 0 3 4 0 7 -7 7 -7 0 -10 -3 -7 -7z" />
    <path d="M1993 4073 c4 -3 10 -3 14 0 3 4 0 7 -7 7 -7 0 -10 -3 -7 -7z" />
    <path d="M9113 4073 c4 -3 10 -3 14 0 3 4 0 7 -7 7 -7 0 -10 -3 -7 -7z" />
    <path d="M2033 4063 c4 -3 10 -3 14 0 3 4 0 7 -7 7 -7 0 -10 -3 -7 -7z" />
    <path d="M9030 4060 l-15 -10 12 0 c6 0 15 5 18 10 8 12 4 12 -15 0z" />
    <path d="M9073 4063 c4 -3 10 -3 14 0 3 4 0 7 -7 7 -7 0 -10 -3 -7 -7z" />
    <path d="M2143 4043 c4 -3 10 -3 14 0 3 4 0 7 -7 7 -7 0 -10 -3 -7 -7z" />
    <path d="M8963 4043 c4 -3 10 -3 14 0 3 4 0 7 -7 7 -7 0 -10 -3 -7 -7z" />
    <path d="M575 3800 c3 -5 8 -10 11 -10 3 0 2 5 -1 10 -3 6 -8 10 -11 10 -3 0
-2 -4 1 -10z" />
    <path d="M10310 3575 l-12 -15 10 0 c5 0 12 7 16 15 3 8 4 15 2 15 -2 0 -9 -7
-16 -15z" />
    <path d="M850 3530 c0 -5 5 -10 11 -10 5 0 7 5 4 10 -3 6 -8 10 -11 10 -2 0
-4 -4 -4 -10z" />
    <path d="M10255 3530 c-3 -5 -2 -10 4 -10 5 0 13 5 16 10 3 6 2 10 -4 10 -5 0
-13 -4 -16 -10z" />
    <path d="M890 3500 c0 -5 5 -10 11 -10 5 0 7 5 4 10 -3 6 -8 10 -11 10 -2 0
-4 -4 -4 -10z" />
    <path d="M10215 3500 c-3 -5 -2 -10 4 -10 5 0 13 5 16 10 3 6 2 10 -4 10 -5 0
-13 -4 -16 -10z" />
    <path d="M1055 3380 c3 -5 11 -10 16 -10 6 0 7 5 4 10 -3 6 -11 10 -16 10 -6
0 -7 -4 -4 -10z" />
    <path d="M10050 3379 c0 -5 5 -7 10 -4 6 3 10 8 10 11 0 2 -4 4 -10 4 -5 0
-10 -5 -10 -11z" />
    <path d="M9824 3248 l-7 -11 11 7 c7 4 12 9 12 12 0 8 -9 4 -16 -8z" />
  </g>
  <g transform="translate(0.000000,1618.000000) scale(0.100000,-0.100000)" fill="#a3a3a3" stroke="none">
    <path d="M2108 14153 c7 -3 16 -2 19 1 4 3 -2 6 -13 5 l-19 -1 13 -5z" />
    <path d="M9003 14153 c4 -3 10 -3 14 0 3 4 0 7 -7 7 -7 0 -10 -3 -7 -7z" />
    <path d="M2003 14143 c4 -3 10 -3 14 0 3 4 0 7 -7 7 -7 0 -10 -3 -7 -7z" />
    <path d="M9103 14143 c4 -3 10 -3 14 0 3 4 0 7 -7 7 -7 0 -10 -3 -7 -7z" />
    <path d="M1943 14133 c4 -3 10 -3 14 0 3 4 0 7 -7 7 -7 0 -10 -3 -7 -7z" />
    <path d="M9163 14133 c4 -3 10 -3 14 0 3 4 0 7 -7 7 -7 0 -10 -3 -7 -7z" />
    <path d="M1635 14070 l-6 -10 15 6 c18 7 21 14 7 14 -6 0 -13 -4 -16 -10z" />
    <path d="M9468 14073 c7 -3 16 -2 19 1 4 3 -2 6 -13 5 l-19 -1 13 -5z" />
    <path d="M1590 14060 l-15 -10 12 0 c6 0 15 5 18 10 8 12 4 12 -15 0z" />
    <path d="M1485 14020 l-6 -10 15 6 c18 7 21 14 7 14 -6 0 -13 -4 -16 -10z" />
    <path d="M9715 13990 c3 -5 8 -10 11 -10 3 0 2 5 -1 10 -3 6 -8 10 -11 10 -3
0 -2 -4 1 -10z" />
    <path d="M9785 13960 c3 -5 8 -10 11 -10 3 0 2 5 -1 10 -3 6 -8 10 -11 10 -3
0 -2 -4 1 -10z" />
    <path d="M1323 13953 c4 -3 10 -3 14 0 3 4 0 7 -7 7 -7 0 -10 -3 -7 -7z" />
    <path d="M1185 13890 l-6 -10 15 6 c18 7 21 14 7 14 -6 0 -13 -4 -16 -10z" />
    <path d="M9910 13896 c0 -2 7 -7 16 -10 l15 -6 -6 10 c-6 10 -25 14 -25 6z" />
    <path d="M984 13758 l-7 -11 11 7 c12 7 16 16 8 16 -3 0 -8 -5 -12 -12z" />
    <path d="M10125 13760 c3 -5 8 -10 11 -10 3 0 2 5 -1 10 -3 6 -8 10 -11 10 -3
0 -2 -4 1 -10z" />
    <path d="M10180 13726 c0 -2 8 -10 18 -17 l17 -14 -14 18 c-13 16 -21 21 -21
13z" />
    <path d="M10225 13690 c3 -5 8 -10 11 -10 3 0 2 5 -1 10 -3 6 -8 10 -11 10 -3
0 -2 -4 1 -10z" />
    <path d="M10265 13660 c3 -5 8 -10 11 -10 3 0 2 5 -1 10 -3 6 -8 10 -11 10 -3
0 -2 -4 1 -10z" />
    <path d="M689 13513 l-14 -18 18 14 c9 7 17 15 17 17 0 8 -8 3 -21 -13z" />
    <path d="M639 13463 l-14 -18 18 14 c16 13 21 21 13 21 -2 0 -10 -8 -17 -17z" />
    <path d="M10475 13460 c3 -5 8 -10 11 -10 3 0 2 5 -1 10 -3 6 -8 10 -11 10 -3
0 -2 -4 1 -10z" />
    <path d="M494 13298 l-7 -11 11 7 c7 4 12 9 12 12 0 8 -9 4 -16 -8z" />
    <path d="M329 13073 l-14 -18 18 14 c16 13 21 21 13 21 -2 0 -10 -8 -17 -17z" />
    <path d="M10770 13086 c0 -2 8 -10 18 -17 l17 -14 -14 18 c-13 16 -21 21 -21
13z" />
    <path d="M200 12830 c0 -7 3 -10 7 -7 3 4 3 10 0 14 -4 3 -7 0 -7 -7z" />
    <path d="M10945 12770 c3 -5 8 -10 11 -10 3 0 2 5 -1 10 -3 6 -8 10 -11 10 -3
0 -2 -4 1 -10z" />
    <path d="M11021 12564 l1 -19 5 13 c3 7 2 16 -1 19 -3 4 -6 -2 -5 -13z" />
    <path d="M61 12454 l1 -19 5 13 c3 7 2 16 -1 19 -3 4 -6 -2 -5 -13z" />
    <path d="M11051 12454 l1 -19 5 13 c3 7 2 16 -1 19 -3 4 -6 -2 -5 -13z" />
    <path d="M30 12310 c0 -7 3 -10 7 -7 3 4 3 10 0 14 -4 3 -7 0 -7 -7z" />
    <path d="M11080 12310 c0 -7 3 -10 7 -7 3 4 3 10 0 14 -4 3 -7 0 -7 -7z" />
    <path d="M20 12260 c0 -7 3 -10 7 -7 3 4 3 10 0 14 -4 3 -7 0 -7 -7z" />
    <path d="M11090 12260 c0 -7 3 -10 7 -7 3 4 3 10 0 14 -4 3 -7 0 -7 -7z" />
    <path d="M11100 12210 c0 -7 3 -10 7 -7 3 4 3 10 0 14 -4 3 -7 0 -7 -7z" />
    <path d="M11 12134 l1 -19 5 13 c3 7 2 16 -1 19 -3 4 -6 -2 -5 -13z" />
    <path d="M11112 12050 c0 -14 2 -19 5 -12 2 6 2 18 0 25 -3 6 -5 1 -5 -13z" />
    <path d="M1 12044 l1 -19 5 13 c3 7 2 16 -1 19 -3 4 -6 -2 -5 -13z" />
    <path d="M2 5140 c0 -14 2 -19 5 -12 2 6 2 18 0 25 -3 6 -5 1 -5 -13z" />
    <path d="M11111 5144 l1 -19 5 13 c3 7 2 16 -1 19 -3 4 -6 -2 -5 -13z" />
    <path d="M11 5054 l1 -19 5 13 c3 7 2 16 -1 19 -3 4 -6 -2 -5 -13z" />
    <path d="M11100 4980 c0 -7 3 -10 7 -7 3 4 3 10 0 14 -4 3 -7 0 -7 -7z" />
    <path d="M21 4934 l1 -19 5 13 c3 7 2 16 -1 19 -3 4 -6 -2 -5 -13z" />
    <path d="M11091 4934 l1 -19 5 13 c3 7 2 16 -1 19 -3 4 -6 -2 -5 -13z" />
    <path d="M30 4880 c0 -7 3 -10 7 -7 3 4 3 10 0 14 -4 3 -7 0 -7 -7z" />
    <path d="M11080 4880 c0 -7 3 -10 7 -7 3 4 3 10 0 14 -4 3 -7 0 -7 -7z" />
    <path d="M61 4734 l1 -19 5 13 c3 7 2 16 -1 19 -3 4 -6 -2 -5 -13z" />
    <path d="M11051 4734 l1 -19 5 13 c3 7 2 16 -1 19 -3 4 -6 -2 -5 -13z" />
    <path d="M11021 4624 l1 -19 5 13 c3 7 2 16 -1 19 -3 4 -6 -2 -5 -13z" />
    <path d="M150 4470 c0 -7 3 -10 7 -7 3 4 3 10 0 14 -4 3 -7 0 -7 -7z" />
    <path d="M10960 4470 c0 -7 3 -10 7 -7 3 4 3 10 0 14 -4 3 -7 0 -7 -7z" />
    <path d="M10950 4430 c0 -7 3 -10 7 -7 3 4 3 10 0 14 -4 3 -7 0 -7 -7z" />
    <path d="M200 4360 c0 -7 3 -10 7 -7 3 4 3 10 0 14 -4 3 -7 0 -7 -7z" />
    <path d="M320 4126 c0 -2 8 -10 18 -17 l17 -14 -14 18 c-13 16 -21 21 -21 13z" />
    <path d="M10779 4113 l-14 -18 18 14 c16 13 21 21 13 21 -2 0 -10 -8 -17 -17z" />
    <path d="M495 3890 c3 -5 8 -10 11 -10 3 0 2 5 -1 10 -3 6 -8 10 -11 10 -3 0
-2 -4 1 -10z" />
    <path d="M630 3736 c0 -2 8 -10 18 -17 l17 -14 -14 18 c-13 16 -21 21 -21 13z" />
    <path d="M10474 3728 l-7 -11 11 7 c12 7 16 16 8 16 -3 0 -8 -5 -12 -12z" />
    <path d="M685 3680 c3 -5 8 -10 11 -10 3 0 2 5 -1 10 -3 6 -8 10 -11 10 -3 0
-2 -4 1 -10z" />
    <path d="M10264 3528 l-7 -11 11 7 c12 7 16 16 8 16 -3 0 -8 -5 -12 -12z" />
    <path d="M10229 3503 l-14 -18 18 14 c16 13 21 21 13 21 -2 0 -10 -8 -17 -17z" />
    <path d="M10189 3473 l-14 -18 18 14 c9 7 17 15 17 17 0 8 -8 3 -21 -13z" />
    <path d="M985 3430 c3 -5 8 -10 11 -10 3 0 2 5 -1 10 -3 6 -8 10 -11 10 -3 0
-2 -4 1 -10z" />
    <path d="M10124 3428 l-7 -11 11 7 c7 4 12 9 12 12 0 8 -9 4 -16 -8z" />
    <path d="M10044 3368 l-7 -11 11 7 c7 4 12 9 12 12 0 8 -9 4 -16 -8z" />
    <path d="M1187 3299 c7 -7 15 -10 18 -7 3 3 -2 9 -12 12 l-18 7 12 -12z" />
    <path d="M9920 3300 l-15 -10 12 0 c6 0 15 5 18 10 8 12 4 12 -15 0z" />
    <path d="M1323 3233 c4 -3 10 -3 14 0 3 4 0 7 -7 7 -7 0 -10 -3 -7 -7z" />
    <path d="M9784 3228 l-7 -11 11 7 c7 4 12 9 12 12 0 8 -9 4 -16 -8z" />
    <path d="M9714 3198 l-7 -11 11 7 c7 4 12 9 12 12 0 8 -9 4 -16 -8z" />
    <path d="M9674 3178 l-7 -11 11 7 c7 4 12 9 12 12 0 8 -9 4 -16 -8z" />
    <path d="M1493 3163 c4 -3 10 -3 14 0 3 4 0 7 -7 7 -7 0 -10 -3 -7 -7z" />
    <path d="M1580 3136 c0 -2 7 -7 16 -10 l15 -6 -6 10 c-6 10 -25 14 -25 6z" />
    <path d="M1848 3063 c7 -3 16 -2 19 1 4 3 -2 6 -13 5 l-19 -1 13 -5z" />
    <path d="M1943 3053 c4 -3 10 -3 14 0 3 4 0 7 -7 7 -7 0 -10 -3 -7 -7z" />
    <path d="M9163 3053 c4 -3 10 -3 14 0 3 4 0 7 -7 7 -7 0 -10 -3 -7 -7z" />
    <path d="M2003 3043 c4 -3 10 -3 14 0 3 4 0 7 -7 7 -7 0 -10 -3 -7 -7z" />
    <path d="M9103 3043 c4 -3 10 -3 14 0 3 4 0 7 -7 7 -7 0 -10 -3 -7 -7z" />
    <path d="M2108 3033 c7 -3 16 -2 19 1 4 3 -2 6 -13 5 l-19 -1 13 -5z" />
    <path d="M9003 3033 c4 -3 10 -3 14 0 3 4 0 7 -7 7 -7 0 -10 -3 -7 -7z" />
  </g>
  <g transform="translate(0.000000,1618.000000) scale(0.100000,-0.100000)" fill="#636363" stroke="none">
    <path d="M2128 14153 c6 -2 18 -2 25 0 6 3 1 5 -13 5 -14 0 -19 -2 -12 -5z" />
    <path d="M8968 14153 c7 -3 16 -2 19 1 4 3 -2 6 -13 5 l-19 -1 13 -5z" />
    <path d="M2033 14143 c4 -3 10 -3 14 0 3 4 0 7 -7 7 -7 0 -10 -3 -7 -7z" />
    <path d="M1773 14103 c4 -3 10 -3 14 0 3 4 0 7 -7 7 -7 0 -10 -3 -7 -7z" />
    <path d="M1473 14013 c4 -3 10 -3 14 0 3 4 0 7 -7 7 -7 0 -10 -3 -7 -7z" />
    <path d="M1433 14003 c4 -3 10 -3 14 0 3 4 0 7 -7 7 -7 0 -10 -3 -7 -7z" />
    <path d="M1393 13983 c4 -3 10 -3 14 0 3 4 0 7 -7 7 -7 0 -10 -3 -7 -7z" />
    <path d="M1334 13958 l-7 -11 11 7 c12 7 16 16 8 16 -3 0 -8 -5 -12 -12z" />
    <path d="M1123 13853 c4 -3 10 -3 14 0 3 4 0 7 -7 7 -7 0 -10 -3 -7 -7z" />
    <path d="M9983 13853 c4 -3 10 -3 14 0 3 4 0 7 -7 7 -7 0 -10 -3 -7 -7z" />
    <path d="M1080 13825 c-14 -8 -20 -14 -14 -15 5 0 19 7 30 15 24 18 16 19 -16
0z" />
    <path d="M10017 13829 c7 -7 15 -10 18 -7 3 3 -2 9 -12 12 l-18 7 12 -12z" />
    <path d="M904 13698 l-7 -11 11 7 c12 7 16 16 8 16 -3 0 -8 -5 -12 -12z" />
    <path d="M10205 13700 c3 -5 8 -10 11 -10 3 0 2 5 -1 10 -3 6 -8 10 -11 10 -3
0 -2 -4 1 -10z" />
    <path d="M484 13288 l-7 -11 11 7 c12 7 16 16 8 16 -3 0 -8 -5 -12 -12z" />
    <path d="M10625 13290 c3 -5 8 -10 11 -10 3 0 2 5 -1 10 -3 6 -8 10 -11 10 -3
0 -2 -4 1 -10z" />
    <path d="M454 13248 l-7 -11 11 7 c12 7 16 16 8 16 -3 0 -8 -5 -12 -12z" />
    <path d="M340 13090 c0 -7 3 -10 7 -7 3 4 3 10 0 14 -4 3 -7 0 -7 -7z" />
    <path d="M10770 13090 c0 -7 3 -10 7 -7 3 4 3 10 0 14 -4 3 -7 0 -7 -7z" />
    <path d="M10795 13060 c3 -5 8 -10 11 -10 3 0 2 5 -1 10 -3 6 -8 10 -11 10 -3
0 -2 -4 1 -10z" />
    <path d="M294 13018 l-7 -11 11 7 c7 4 12 9 12 12 0 8 -9 4 -16 -8z" />
    <path d="M10815 13020 c3 -5 8 -10 11 -10 3 0 2 5 -1 10 -3 6 -8 10 -11 10 -3
0 -2 -4 1 -10z" />
    <path d="M10950 12760 c0 -7 3 -10 7 -7 3 4 3 10 0 14 -4 3 -7 0 -7 -7z" />
    <path d="M146 12713 l-7 -18 12 12 c7 7 10 15 7 18 -3 3 -9 -2 -12 -12z" />
    <path d="M10960 12721 c0 -6 4 -13 10 -16 l10 -6 -6 15 c-7 18 -14 21 -14 7z" />
    <path d="M10980 12680 c0 -7 3 -10 7 -7 3 4 3 10 0 14 -4 3 -7 0 -7 -7z" />
    <path d="M90 12540 c0 -7 3 -10 7 -7 3 4 3 10 0 14 -4 3 -7 0 -7 -7z" />
    <path d="M50 12380 c0 -7 3 -10 7 -7 3 4 3 10 0 14 -4 3 -7 0 -7 -7z" />
    <path d="M11100 12180 c0 -7 3 -10 7 -7 3 4 3 10 0 14 -4 3 -7 0 -7 -7z" />
    <path d="M10 12120 c0 -7 3 -10 7 -7 3 4 3 10 0 14 -4 3 -7 0 -7 -7z" />
    <path d="M1 12004 l1 -19 5 13 c3 7 2 16 -1 19 -3 4 -6 -2 -5 -13z" />
    <path d="M11110 12010 c0 -7 3 -10 7 -7 3 4 3 10 0 14 -4 3 -7 0 -7 -7z" />
    <path d="M11111 5184 l1 -19 5 13 c3 7 2 16 -1 19 -3 4 -6 -2 -5 -13z" />
    <path d="M0 5180 c0 -7 3 -10 7 -7 3 4 3 10 0 14 -4 3 -7 0 -7 -7z" />
    <path d="M10 5070 c0 -7 3 -10 7 -7 3 4 3 10 0 14 -4 3 -7 0 -7 -7z" />
    <path d="M11100 5010 c0 -7 3 -10 7 -7 3 4 3 10 0 14 -4 3 -7 0 -7 -7z" />
    <path d="M50 4810 c0 -7 3 -10 7 -7 3 4 3 10 0 14 -4 3 -7 0 -7 -7z" />
    <path d="M11054 4748 l-7 -11 11 7 c12 7 16 16 8 16 -3 0 -8 -5 -12 -12z" />
    <path d="M80 4680 c0 -7 3 -10 7 -7 3 4 3 10 0 14 -4 3 -7 0 -7 -7z" />
    <path d="M11030 4680 c0 -7 3 -10 7 -7 3 4 3 10 0 14 -4 3 -7 0 -7 -7z" />
    <path d="M10980 4510 c0 -7 3 -10 7 -7 3 4 3 10 0 14 -4 3 -7 0 -7 -7z" />
    <path d="M296 4167 c3 -10 9 -15 12 -12 3 3 0 11 -7 18 l-12 12 7 -18z" />
    <path d="M10815 4169 c-4 -6 -5 -12 -2 -15 2 -3 7 2 10 11 7 17 1 20 -8 4z" />
    <path d="M10794 4128 l-7 -11 11 7 c12 7 16 16 8 16 -3 0 -8 -5 -12 -12z" />
    <path d="M340 4100 c0 -7 3 -10 7 -7 3 4 3 10 0 14 -4 3 -7 0 -7 -7z" />
    <path d="M10770 4100 c0 -7 3 -10 7 -7 3 4 3 10 0 14 -4 3 -7 0 -7 -7z" />
    <path d="M455 3940 c3 -5 8 -10 11 -10 3 0 2 5 -1 10 -3 6 -8 10 -11 10 -3 0
-2 -4 1 -10z" />
    <path d="M485 3900 c3 -5 8 -10 11 -10 3 0 2 5 -1 10 -3 6 -8 10 -11 10 -3 0
-2 -4 1 -10z" />
    <path d="M10624 3898 l-7 -11 11 7 c7 4 12 9 12 12 0 8 -9 4 -16 -8z" />
    <path d="M515 3860 c3 -5 8 -10 11 -10 3 0 2 5 -1 10 -3 6 -8 10 -11 10 -3 0
-2 -4 1 -10z" />
    <path d="M10594 3858 l-7 -11 11 7 c12 7 16 16 8 16 -3 0 -8 -5 -12 -12z" />
    <path d="M865 3520 c3 -5 8 -10 11 -10 3 0 2 5 -1 10 -3 6 -8 10 -11 10 -3 0
-2 -4 1 -10z" />
    <path d="M10244 3518 l-7 -11 11 7 c12 7 16 16 8 16 -3 0 -8 -5 -12 -12z" />
    <path d="M905 3490 c3 -5 8 -10 11 -10 3 0 2 5 -1 10 -3 6 -8 10 -11 10 -3 0
-2 -4 1 -10z" />
    <path d="M10204 3488 l-7 -11 11 7 c7 4 12 9 12 12 0 8 -9 4 -16 -8z" />
    <path d="M1063 3373 c4 -3 10 -3 14 0 3 4 0 7 -7 7 -7 0 -10 -3 -7 -7z" />
    <path d="M1123 3333 c4 -3 10 -3 14 0 3 4 0 7 -7 7 -7 0 -10 -3 -7 -7z" />
    <path d="M9983 3333 c4 -3 10 -3 14 0 3 4 0 7 -7 7 -7 0 -10 -3 -7 -7z" />
    <path d="M1330 3236 c0 -2 8 -10 18 -17 l17 -14 -14 18 c-13 16 -21 21 -21 13z" />
    <path d="M1393 3203 c4 -3 10 -3 14 0 3 4 0 7 -7 7 -7 0 -10 -3 -7 -7z" />
    <path d="M1430 3186 c0 -2 7 -7 16 -10 l15 -6 -6 10 c-6 10 -25 14 -25 6z" />
    <path d="M1613 3123 c4 -3 10 -3 14 0 3 4 0 7 -7 7 -7 0 -10 -3 -7 -7z" />
    <path d="M9485 3120 l-6 -10 15 6 c18 7 21 14 7 14 -6 0 -13 -4 -16 -10z" />
    <path d="M1773 3083 c4 -3 10 -3 14 0 3 4 0 7 -7 7 -7 0 -10 -3 -7 -7z" />
    <path d="M2033 3043 c4 -3 10 -3 14 0 3 4 0 7 -7 7 -7 0 -10 -3 -7 -7z" />
    <path d="M2128 3033 c6 -2 18 -2 25 0 6 3 1 5 -13 5 -14 0 -19 -2 -12 -5z" />
    <path d="M8968 3033 c7 -3 16 -2 19 1 4 3 -2 6 -13 5 l-19 -1 13 -5z" />
  </g>
  <g transform="translate(0.000000,1618.000000) scale(0.100000,-0.100000)" fill="#1d6033" stroke="none">
    <path d="M2168 13143 c7 -3 16 -2 19 1 4 3 -2 6 -13 5 l-19 -1 13 -5z" />
    <path d="M8938 13143 c6 -2 18 -2 25 0 6 3 1 5 -13 5 -14 0 -19 -2 -12 -5z" />
    <path d="M2093 13133 c4 -3 10 -3 14 0 3 4 0 7 -7 7 -7 0 -10 -3 -7 -7z" />
    <path d="M9013 13133 c4 -3 10 -3 14 0 3 4 0 7 -7 7 -7 0 -10 -3 -7 -7z" />
    <path d="M2003 13113 c4 -3 10 -3 14 0 3 4 0 7 -7 7 -7 0 -10 -3 -7 -7z" />
    <path d="M1714 13018 l-7 -11 11 7 c7 4 12 9 12 12 0 8 -9 4 -16 -8z" />
    <path d="M9390 13026 c0 -3 9 -10 20 -16 11 -6 20 -8 20 -6 0 3 -9 10 -20 16
-11 6 -20 8 -20 6z" />
    <path d="M9473 12973 c4 -3 10 -3 14 0 3 4 0 7 -7 7 -7 0 -10 -3 -7 -7z" />
    <path d="M1550 12919 l-25 -20 20 10 c33 17 51 31 40 31 -5 0 -21 -10 -35 -21z" />
    <path d="M9530 12936 c0 -2 7 -7 16 -10 l15 -6 -6 10 c-6 10 -25 14 -25 6z" />
    <path d="M9575 12910 c3 -5 8 -10 11 -10 3 0 2 5 -1 10 -3 6 -8 10 -11 10 -3
0 -2 -4 1 -10z" />
    <path d="M1513 12883 c4 -3 10 -3 14 0 3 4 0 7 -7 7 -7 0 -10 -3 -7 -7z" />
    <path d="M1474 12858 l-7 -11 11 7 c12 7 16 16 8 16 -3 0 -8 -5 -12 -12z" />
    <path d="M1374 12768 l-29 -33 33 29 c30 28 37 36 29 36 -2 0 -16 -15 -33 -32z" />
    <path d="M9725 12780 c3 -5 8 -10 11 -10 3 0 2 5 -1 10 -3 6 -8 10 -11 10 -3
0 -2 -4 1 -10z" />
    <path d="M9755 12750 c3 -5 8 -10 11 -10 3 0 2 5 -1 10 -3 6 -8 10 -11 10 -3
0 -2 -4 1 -10z" />
    <path d="M1277 12662 c-24 -27 -21 -36 4 -11 11 11 19 23 16 25 -2 2 -11 -4
-20 -14z" />
    <path d="M9846 12647 c3 -10 9 -15 12 -12 3 3 0 11 -7 18 l-12 12 7 -18z" />
    <path d="M1240 12610 c0 -7 3 -10 7 -7 3 4 3 10 0 14 -4 3 -7 0 -7 -7z" />
    <path d="M9870 12610 c0 -7 3 -10 7 -7 3 4 3 10 0 14 -4 3 -7 0 -7 -7z" />
    <path d="M1174 12508 l-7 -11 11 7 c12 7 16 16 8 16 -3 0 -8 -5 -12 -12z" />
    <path d="M9965 12470 c3 -5 8 -10 11 -10 3 0 2 5 -1 10 -3 6 -8 10 -11 10 -3
0 -2 -4 1 -10z" />
    <path d="M1140 12440 c0 -7 3 -10 7 -7 3 4 3 10 0 14 -4 3 -7 0 -7 -7z" />
    <path d="M10080 12150 c0 -7 3 -10 7 -7 3 4 3 10 0 14 -4 3 -7 0 -7 -7z" />
    <path d="M1011 11984 l1 -19 5 13 c3 7 2 16 -1 19 -3 4 -6 -2 -5 -13z" />
    <path d="M10101 11984 l1 -19 5 13 c3 7 2 16 -1 19 -3 4 -6 -2 -5 -13z" />
    <path d="M1011 5204 l1 -19 5 13 c3 7 2 16 -1 19 -3 4 -6 -2 -5 -13z" />
    <path d="M10101 5204 l1 -19 5 13 c3 7 2 16 -1 19 -3 4 -6 -2 -5 -13z" />
    <path d="M10080 5040 c0 -7 3 -10 7 -7 3 4 3 10 0 14 -4 3 -7 0 -7 -7z" />
    <path d="M1040 5000 c0 -7 3 -10 7 -7 3 4 3 10 0 14 -4 3 -7 0 -7 -7z" />
    <path d="M10070 5000 c0 -7 3 -10 7 -7 3 4 3 10 0 14 -4 3 -7 0 -7 -7z" />
    <path d="M1135 4750 c3 -5 8 -10 11 -10 3 0 2 5 -1 10 -3 6 -8 10 -11 10 -3 0
-2 -4 1 -10z" />
    <path d="M9964 4718 l-7 -11 11 7 c7 4 12 9 12 12 0 8 -9 4 -16 -8z" />
    <path d="M1175 4680 c3 -5 8 -10 11 -10 3 0 2 5 -1 10 -3 6 -8 10 -11 10 -3 0
-2 -4 1 -10z" />
    <path d="M1220 4610 c0 -7 3 -10 7 -7 3 4 3 10 0 14 -4 3 -7 0 -7 -7z" />
    <path d="M1240 4580 c0 -7 3 -10 7 -7 3 4 3 10 0 14 -4 3 -7 0 -7 -7z" />
    <path d="M9870 4580 c0 -7 3 -10 7 -7 3 4 3 10 0 14 -4 3 -7 0 -7 -7z" />
    <path d="M1260 4552 c0 -5 9 -17 20 -27 11 -10 20 -15 20 -12 0 4 -9 16 -20
27 -11 11 -20 16 -20 12z" />
    <path d="M9846 4543 l-7 -18 12 12 c7 7 10 15 7 18 -3 3 -9 -2 -12 -12z" />
    <path d="M1380 4415 c13 -14 26 -25 28 -25 3 0 -5 11 -18 25 -13 14 -26 25
-28 25 -3 0 5 -11 18 -25z" />
    <path d="M9724 4408 l-7 -11 11 7 c7 4 12 9 12 12 0 8 -9 4 -16 -8z" />
    <path d="M1475 4330 c3 -5 8 -10 11 -10 3 0 2 5 -1 10 -3 6 -8 10 -11 10 -3 0
-2 -4 1 -10z" />
    <path d="M1550 4271 c14 -11 30 -21 35 -21 11 0 -7 14 -40 31 l-20 10 25 -20z" />
    <path d="M9574 4278 l-7 -11 11 7 c7 4 12 9 12 12 0 8 -9 4 -16 -8z" />
    <path d="M9540 4260 l-15 -10 12 0 c6 0 15 5 18 10 8 12 4 12 -15 0z" />
    <path d="M9473 4213 c4 -3 10 -3 14 0 3 4 0 7 -7 7 -7 0 -10 -3 -7 -7z" />
    <path d="M9404 4174 l-19 -15 23 11 c12 6 22 13 22 15 0 8 -5 6 -26 -11z" />
    <path d="M1715 4170 c3 -5 8 -10 11 -10 3 0 2 5 -1 10 -3 6 -8 10 -11 10 -3 0
-2 -4 1 -10z" />
    <path d="M2003 4073 c4 -3 10 -3 14 0 3 4 0 7 -7 7 -7 0 -10 -3 -7 -7z" />
    <path d="M2093 4053 c4 -3 10 -3 14 0 3 4 0 7 -7 7 -7 0 -10 -3 -7 -7z" />
    <path d="M9013 4053 c4 -3 10 -3 14 0 3 4 0 7 -7 7 -7 0 -10 -3 -7 -7z" />
    <path d="M2168 4043 c7 -3 16 -2 19 1 4 3 -2 6 -13 5 l-19 -1 13 -5z" />
    <path d="M8938 4043 c6 -2 18 -2 25 0 6 3 1 5 -13 5 -14 0 -19 -2 -12 -5z" />
  </g>
  <g transform="translate(0.000000,1618.000000) scale(0.100000,-0.100000)" fill="#bcbcbc" stroke="none">
    <path d="M2093 14153 c4 -3 10 -3 14 0 3 4 0 7 -7 7 -7 0 -10 -3 -7 -7z" />
    <path d="M9013 14153 c4 -3 10 -3 14 0 3 4 0 7 -7 7 -7 0 -10 -3 -7 -7z" />
    <path d="M9173 14133 c4 -3 10 -3 14 0 3 4 0 7 -7 7 -7 0 -10 -3 -7 -7z" />
    <path d="M1723 14093 c4 -3 10 -3 14 0 3 4 0 7 -7 7 -7 0 -10 -3 -7 -7z" />
    <path d="M9378 14093 c7 -3 16 -2 19 1 4 3 -2 6 -13 5 l-19 -1 13 -5z" />
    <path d="M1603 14063 c4 -3 10 -3 14 0 3 4 0 7 -7 7 -7 0 -10 -3 -7 -7z" />
    <path d="M9503 14063 c4 -3 10 -3 14 0 3 4 0 7 -7 7 -7 0 -10 -3 -7 -7z" />
    <path d="M9635 14020 c3 -5 8 -10 11 -10 3 0 2 5 -1 10 -3 6 -8 10 -11 10 -3
0 -2 -4 1 -10z" />
    <path d="M1424 13998 l-7 -11 11 7 c12 7 16 16 8 16 -3 0 -8 -5 -12 -12z" />
    <path d="M1384 13978 l-7 -11 11 7 c12 7 16 16 8 16 -3 0 -8 -5 -12 -12z" />
    <path d="M9773 13963 c4 -3 10 -3 14 0 3 4 0 7 -7 7 -7 0 -10 -3 -7 -7z" />
    <path d="M1013 13783 c4 -3 10 -3 14 0 3 4 0 7 -7 7 -7 0 -10 -3 -7 -7z" />
    <path d="M10093 13783 c4 -3 10 -3 14 0 3 4 0 7 -7 7 -7 0 -10 -3 -7 -7z" />
    <path d="M794 13608 l-7 -11 11 7 c12 7 16 16 8 16 -3 0 -8 -5 -12 -12z" />
    <path d="M704 13528 l-7 -11 11 7 c7 4 12 9 12 12 0 8 -9 4 -16 -8z" />
    <path d="M10405 13530 c3 -5 8 -10 11 -10 3 0 2 5 -1 10 -3 6 -8 10 -11 10 -3
0 -2 -4 1 -10z" />
    <path d="M370 13140 c0 -7 3 -10 7 -7 3 4 3 10 0 14 -4 3 -7 0 -7 -7z" />
    <path d="M10740 13140 c0 -7 3 -10 7 -7 3 4 3 10 0 14 -4 3 -7 0 -7 -7z" />
    <path d="M10800 13050 c0 -7 3 -10 7 -7 3 4 3 10 0 14 -4 3 -7 0 -7 -7z" />
    <path d="M290 13010 c0 -7 3 -10 7 -7 3 4 3 10 0 14 -4 3 -7 0 -7 -7z" />
    <path d="M10820 13010 c0 -7 3 -10 7 -7 3 4 3 10 0 14 -4 3 -7 0 -7 -7z" />
    <path d="M189 12813 l-14 -18 18 14 c16 13 21 21 13 21 -2 0 -10 -8 -17 -17z" />
    <path d="M10925 12810 c3 -5 8 -10 11 -10 3 0 2 5 -1 10 -3 6 -8 10 -11 10 -3
0 -2 -4 1 -10z" />
    <path d="M10975 12690 c3 -5 8 -10 11 -10 3 0 2 5 -1 10 -3 6 -8 10 -11 10 -3
0 -2 -4 1 -10z" />
    <path d="M10 12150 c0 -7 3 -10 7 -7 3 4 3 10 0 14 -4 3 -7 0 -7 -7z" />
    <path d="M1 5124 l1 -19 5 13 c3 7 2 16 -1 19 -3 4 -6 -2 -5 -13z" />
    <path d="M11110 5130 c0 -7 3 -10 7 -7 3 4 3 10 0 14 -4 3 -7 0 -7 -7z" />
    <path d="M10 5040 c0 -7 3 -10 7 -7 3 4 3 10 0 14 -4 3 -7 0 -7 -7z" />
    <path d="M11060 4760 c0 -7 3 -10 7 -7 3 4 3 10 0 14 -4 3 -7 0 -7 -7z" />
    <path d="M10974 4498 l-7 -11 11 7 c12 7 16 16 8 16 -3 0 -8 -5 -12 -12z" />
    <path d="M180 4386 c0 -2 8 -10 18 -17 l17 -14 -14 18 c-13 16 -21 21 -21 13z" />
    <path d="M10924 4378 l-7 -11 11 7 c12 7 16 16 8 16 -3 0 -8 -5 -12 -12z" />
    <path d="M290 4180 c0 -7 3 -10 7 -7 3 4 3 10 0 14 -4 3 -7 0 -7 -7z" />
    <path d="M10820 4180 c0 -7 3 -10 7 -7 3 4 3 10 0 14 -4 3 -7 0 -7 -7z" />
    <path d="M10800 4140 c0 -7 3 -10 7 -7 3 4 3 10 0 14 -4 3 -7 0 -7 -7z" />
    <path d="M370 4050 c0 -7 3 -10 7 -7 3 4 3 10 0 14 -4 3 -7 0 -7 -7z" />
    <path d="M10740 4050 c0 -7 3 -10 7 -7 3 4 3 10 0 14 -4 3 -7 0 -7 -7z" />
    <path d="M535 3840 c3 -5 8 -10 11 -10 3 0 2 5 -1 10 -3 6 -8 10 -11 10 -3 0
-2 -4 1 -10z" />
    <path d="M795 3580 c3 -5 8 -10 11 -10 3 0 2 5 -1 10 -3 6 -8 10 -11 10 -3 0
-2 -4 1 -10z" />
    <path d="M1013 3403 c4 -3 10 -3 14 0 3 4 0 7 -7 7 -7 0 -10 -3 -7 -7z" />
    <path d="M10093 3403 c4 -3 10 -3 14 0 3 4 0 7 -7 7 -7 0 -10 -3 -7 -7z" />
    <path d="M9773 3223 c4 -3 10 -3 14 0 3 4 0 7 -7 7 -7 0 -10 -3 -7 -7z" />
    <path d="M1425 3190 c3 -5 8 -10 11 -10 3 0 2 5 -1 10 -3 6 -8 10 -11 10 -3 0
-2 -4 1 -10z" />
    <path d="M1603 3123 c4 -3 10 -3 14 0 3 4 0 7 -7 7 -7 0 -10 -3 -7 -7z" />
    <path d="M9503 3123 c4 -3 10 -3 14 0 3 4 0 7 -7 7 -7 0 -10 -3 -7 -7z" />
    <path d="M1673 3103 c4 -3 10 -3 14 0 3 4 0 7 -7 7 -7 0 -10 -3 -7 -7z" />
    <path d="M1723 3093 c4 -3 10 -3 14 0 3 4 0 7 -7 7 -7 0 -10 -3 -7 -7z" />
    <path d="M9378 3093 c7 -3 16 -2 19 1 4 3 -2 6 -13 5 l-19 -1 13 -5z" />
    <path d="M9173 3053 c4 -3 10 -3 14 0 3 4 0 7 -7 7 -7 0 -10 -3 -7 -7z" />
    <path d="M2093 3033 c4 -3 10 -3 14 0 3 4 0 7 -7 7 -7 0 -10 -3 -7 -7z" />
    <path d="M9013 3033 c4 -3 10 -3 14 0 3 4 0 7 -7 7 -7 0 -10 -3 -7 -7z" />
  </g>
  <g transform="translate(0.000000,1618.000000) scale(0.100000,-0.100000)" fill="#3d3d3d" stroke="none">
    <path d="M2158 14153 c7 -3 16 -2 19 1 4 3 -2 6 -13 5 l-19 -1 13 -5z" />
    <path d="M8948 14153 c7 -3 16 -2 19 1 4 3 -2 6 -13 5 l-19 -1 13 -5z" />
    <path d="M1673 14083 c4 -3 10 -3 14 0 3 4 0 7 -7 7 -7 0 -10 -3 -7 -7z" />
    <path d="M10085 13790 c3 -5 8 -10 11 -10 3 0 2 5 -1 10 -3 6 -8 10 -11 10 -3
0 -2 -4 1 -10z" />
    <path d="M954 13738 l-7 -11 11 7 c7 4 12 9 12 12 0 8 -9 4 -16 -8z" />
    <path d="M10153 13743 c4 -3 10 -3 14 0 3 4 0 7 -7 7 -7 0 -10 -3 -7 -7z" />
    <path d="M893 13693 c4 -3 10 -3 14 0 3 4 0 7 -7 7 -7 0 -10 -3 -7 -7z" />
    <path d="M10213 13693 c4 -3 10 -3 14 0 3 4 0 7 -7 7 -7 0 -10 -3 -7 -7z" />
    <path d="M853 13663 c4 -3 10 -3 14 0 3 4 0 7 -7 7 -7 0 -10 -3 -7 -7z" />
    <path d="M10253 13663 c4 -3 10 -3 14 0 3 4 0 7 -7 7 -7 0 -10 -3 -7 -7z" />
    <path d="M410 13190 c0 -7 3 -10 7 -7 3 4 3 10 0 14 -4 3 -7 0 -7 -7z" />
    <path d="M10700 13190 c0 -7 3 -10 7 -7 3 4 3 10 0 14 -4 3 -7 0 -7 -7z" />
    <path d="M259 12953 l-14 -18 18 14 c16 13 21 21 13 21 -2 0 -10 -8 -17 -17z" />
    <path d="M10840 12966 c0 -2 8 -10 18 -17 l17 -14 -14 18 c-13 16 -21 21 -21
13z" />
    <path d="M1 11994 l1 -19 5 13 c3 7 2 16 -1 19 -3 4 -6 -2 -5 -13z" />
    <path d="M11111 11994 l1 -19 5 13 c3 7 2 16 -1 19 -3 4 -6 -2 -5 -13z" />
    <path d="M1 5194 l1 -19 5 13 c3 7 2 16 -1 19 -3 4 -6 -2 -5 -13z" />
    <path d="M11111 5194 l1 -19 5 13 c3 7 2 16 -1 19 -3 4 -6 -2 -5 -13z" />
    <path d="M85 4670 c3 -5 8 -10 11 -10 3 0 2 5 -1 10 -3 6 -8 10 -11 10 -3 0
-2 -4 1 -10z" />
    <path d="M140 4490 c0 -7 3 -10 7 -7 3 4 3 10 0 14 -4 3 -7 0 -7 -7z" />
    <path d="M10970 4490 c0 -7 3 -10 7 -7 3 4 3 10 0 14 -4 3 -7 0 -7 -7z" />
    <path d="M250 4246 c0 -2 8 -10 18 -17 l17 -14 -14 18 c-13 16 -21 21 -21 13z" />
    <path d="M10849 4233 l-14 -18 18 14 c9 7 17 15 17 17 0 8 -8 3 -21 -13z" />
    <path d="M10804 4148 l-7 -11 11 7 c12 7 16 16 8 16 -3 0 -8 -5 -12 -12z" />
    <path d="M853 3523 c4 -3 10 -3 14 0 3 4 0 7 -7 7 -7 0 -10 -3 -7 -7z" />
    <path d="M10253 3523 c4 -3 10 -3 14 0 3 4 0 7 -7 7 -7 0 -10 -3 -7 -7z" />
    <path d="M893 3493 c4 -3 10 -3 14 0 3 4 0 7 -7 7 -7 0 -10 -3 -7 -7z" />
    <path d="M10213 3493 c4 -3 10 -3 14 0 3 4 0 7 -7 7 -7 0 -10 -3 -7 -7z" />
    <path d="M955 3450 c3 -5 8 -10 11 -10 3 0 2 5 -1 10 -3 6 -8 10 -11 10 -3 0
-2 -4 1 -10z" />
    <path d="M10153 3443 c4 -3 10 -3 14 0 3 4 0 7 -7 7 -7 0 -10 -3 -7 -7z" />
    <path d="M10084 3398 l-7 -11 11 7 c7 4 12 9 12 12 0 8 -9 4 -16 -8z" />
    <path d="M1453 3173 c4 -3 10 -3 14 0 3 4 0 7 -7 7 -7 0 -10 -3 -7 -7z" />
    <path d="M2158 3033 c7 -3 16 -2 19 1 4 3 -2 6 -13 5 l-19 -1 13 -5z" />
    <path d="M8948 3033 c7 -3 16 -2 19 1 4 3 -2 6 -13 5 l-19 -1 13 -5z" />
  </g>
  <g transform="translate(0.000000,1618.000000) scale(0.100000,-0.100000)" fill="#e9e9e9" stroke="none">
    <path d="M2083 14153 c4 -3 10 -3 14 0 3 4 0 7 -7 7 -7 0 -10 -3 -7 -7z" />
    <path d="M9517 14059 c7 -7 15 -10 18 -7 3 3 -2 9 -12 12 l-18 7 12 -12z" />
    <path d="M9623 14023 c4 -3 10 -3 14 0 3 4 0 7 -7 7 -7 0 -10 -3 -7 -7z" />
    <path d="M1249 13923 l-14 -18 18 14 c16 13 21 21 13 21 -2 0 -10 -8 -17 -17z" />
    <path d="M1154 13868 l-7 -11 11 7 c12 7 16 16 8 16 -3 0 -8 -5 -12 -12z" />
    <path d="M9955 13870 c3 -5 8 -10 11 -10 3 0 2 5 -1 10 -3 6 -8 10 -11 10 -3
0 -2 -4 1 -10z" />
    <path d="M594 13418 l-7 -11 11 7 c7 4 12 9 12 12 0 8 -9 4 -16 -8z" />
    <path d="M10515 13420 c3 -5 8 -10 11 -10 3 0 2 5 -1 10 -3 6 -8 10 -11 10 -3
0 -2 -4 1 -10z" />
    <path d="M535 13349 c-4 -6 -5 -12 -2 -15 2 -3 7 2 10 11 7 17 1 20 -8 4z" />
    <path d="M10580 13340 c0 -7 3 -10 7 -7 3 4 3 10 0 14 -4 3 -7 0 -7 -7z" />
    <path d="M284 12998 l-7 -11 11 7 c7 4 12 9 12 12 0 8 -9 4 -16 -8z" />
    <path d="M234 12908 l-7 -11 11 7 c7 4 12 9 12 12 0 8 -9 4 -16 -8z" />
    <path d="M214 12878 l-7 -11 11 7 c12 7 16 16 8 16 -3 0 -8 -5 -12 -12z" />
    <path d="M10895 12880 c3 -5 8 -10 11 -10 3 0 2 5 -1 10 -3 6 -8 10 -11 10 -3
0 -2 -4 1 -10z" />
    <path d="M140 12700 c0 -7 3 -10 7 -7 3 4 3 10 0 14 -4 3 -7 0 -7 -7z" />
    <path d="M10970 12700 c0 -7 3 -10 7 -7 3 4 3 10 0 14 -4 3 -7 0 -7 -7z" />
    <path d="M130 12660 c0 -7 3 -10 7 -7 3 4 3 10 0 14 -4 3 -7 0 -7 -7z" />
    <path d="M105 12599 c-4 -6 -5 -12 -2 -15 2 -3 7 2 10 11 7 17 1 20 -8 4z" />
    <path d="M11010 12590 c6 -11 13 -20 16 -20 2 0 0 9 -6 20 -6 11 -13 20 -16
20 -2 0 0 -9 6 -20z" />
    <path d="M1 12064 l1 -19 5 13 c3 7 2 16 -1 19 -3 4 -6 -2 -5 -13z" />
    <path d="M11110 12070 c0 -7 3 -10 7 -7 3 4 3 10 0 14 -4 3 -7 0 -7 -7z" />
    <path d="M0 5120 c0 -7 3 -10 7 -7 3 4 3 10 0 14 -4 3 -7 0 -7 -7z" />
    <path d="M11110 5120 c0 -7 3 -10 7 -7 3 4 3 10 0 14 -4 3 -7 0 -7 -7z" />
    <path d="M11010 4600 c-6 -11 -8 -20 -6 -20 3 0 10 9 16 20 6 11 8 20 6 20 -3
0 -10 -9 -16 -20z" />
    <path d="M100 4601 c0 -6 4 -13 10 -16 l10 -6 -6 15 c-7 18 -14 21 -14 7z" />
    <path d="M130 4530 c0 -7 3 -10 7 -7 3 4 3 10 0 14 -4 3 -7 0 -7 -7z" />
    <path d="M235 4280 c3 -5 8 -10 11 -10 3 0 2 5 -1 10 -3 6 -8 10 -11 10 -3 0
-2 -4 1 -10z" />
    <path d="M285 4190 c3 -5 8 -10 11 -10 3 0 2 5 -1 10 -3 6 -8 10 -11 10 -3 0
-2 -4 1 -10z" />
    <path d="M595 3770 c3 -5 8 -10 11 -10 3 0 2 5 -1 10 -3 6 -8 10 -11 10 -3 0
-2 -4 1 -10z" />
    <path d="M10514 3768 l-7 -11 11 7 c12 7 16 16 8 16 -3 0 -8 -5 -12 -12z" />
    <path d="M10303 3563 c4 -3 10 -3 14 0 3 4 0 7 -7 7 -7 0 -10 -3 -7 -7z" />
    <path d="M1155 3320 c3 -5 8 -10 11 -10 3 0 2 5 -1 10 -3 6 -8 10 -11 10 -3 0
-2 -4 1 -10z" />
    <path d="M9954 3318 l-7 -11 11 7 c7 4 12 9 12 12 0 8 -9 4 -16 -8z" />
    <path d="M1240 3276 c0 -2 8 -10 18 -17 l17 -14 -14 18 c-13 16 -21 21 -21 13z" />
    <path d="M9623 3163 c4 -3 10 -3 14 0 3 4 0 7 -7 7 -7 0 -10 -3 -7 -7z" />
    <path d="M9515 3130 l-6 -10 15 6 c18 7 21 14 7 14 -6 0 -13 -4 -16 -10z" />
    <path d="M2083 3033 c4 -3 10 -3 14 0 3 4 0 7 -7 7 -7 0 -10 -3 -7 -7z" />
  </g>
  <g transform="translate(0.000000,1618.000000) scale(0.100000,-0.100000)" fill="#113c20" stroke="none">
    <path d="M2153 13143 c4 -3 10 -3 14 0 3 4 0 7 -7 7 -7 0 -10 -3 -7 -7z" />
    <path d="M2043 13123 c4 -3 10 -3 14 0 3 4 0 7 -7 7 -7 0 -10 -3 -7 -7z" />
    <path d="M9210 13096 c0 -2 7 -7 16 -10 l15 -6 -6 10 c-6 10 -25 14 -25 6z" />
    <path d="M1805 13060 l-6 -10 15 6 c18 7 21 14 7 14 -6 0 -13 -4 -16 -10z" />
    <path d="M9290 13066 c0 -2 7 -7 16 -10 l15 -6 -6 10 c-6 10 -25 14 -25 6z" />
    <path d="M1654 12988 l-7 -11 11 7 c12 7 16 16 8 16 -3 0 -8 -5 -12 -12z" />
    <path d="M9455 12990 c3 -5 8 -10 11 -10 3 0 2 5 -1 10 -3 6 -8 10 -11 10 -3
0 -2 -4 1 -10z" />
    <path d="M9630 12870 c0 -7 3 -10 7 -7 3 4 3 10 0 14 -4 3 -7 0 -7 -7z" />
    <path d="M1275 12660 l-6 -10 15 6 c18 7 21 14 7 14 -6 0 -13 -4 -16 -10z" />
    <path d="M9835 12660 c3 -5 8 -10 11 -10 3 0 2 5 -1 10 -3 6 -8 10 -11 10 -3
0 -2 -4 1 -10z" />
    <path d="M1204 12558 l-7 -11 11 7 c12 7 16 16 8 16 -3 0 -8 -5 -12 -12z" />
    <path d="M9905 12560 c3 -5 8 -10 11 -10 3 0 2 5 -1 10 -3 6 -8 10 -11 10 -3
0 -2 -4 1 -10z" />
    <path d="M1164 12498 l-7 -11 11 7 c12 7 16 16 8 16 -3 0 -8 -5 -12 -12z" />
    <path d="M9945 12500 c3 -5 8 -10 11 -10 3 0 2 5 -1 10 -3 6 -8 10 -11 10 -3
0 -2 -4 1 -10z" />
    <path d="M10005 12390 c3 -5 8 -10 11 -10 3 0 2 5 -1 10 -3 6 -8 10 -11 10 -3
0 -2 -4 1 -10z" />
    <path d="M1095 12349 c-4 -6 -5 -12 -2 -15 2 -3 7 2 10 11 7 17 1 20 -8 4z" />
    <path d="M10020 12340 c0 -7 3 -10 7 -7 3 4 3 10 0 14 -4 3 -7 0 -7 -7z" />
    <path d="M1065 12259 c-4 -6 -5 -12 -2 -15 2 -3 7 2 10 11 7 17 1 20 -8 4z" />
    <path d="M10050 12250 c0 -7 3 -10 7 -7 3 4 3 10 0 14 -4 3 -7 0 -7 -7z" />
    <path d="M1050 12220 c0 -7 3 -10 7 -7 3 4 3 10 0 14 -4 3 -7 0 -7 -7z" />
    <path d="M10060 12220 c0 -7 3 -10 7 -7 3 4 3 10 0 14 -4 3 -7 0 -7 -7z" />
    <path d="M1030 12110 c0 -7 3 -10 7 -7 3 4 3 10 0 14 -4 3 -7 0 -7 -7z" />
    <path d="M1010 12000 c0 -7 3 -10 7 -7 3 4 3 10 0 14 -4 3 -7 0 -7 -7z" />
    <path d="M10100 12000 c0 -7 3 -10 7 -7 3 4 3 10 0 14 -4 3 -7 0 -7 -7z" />
    <path d="M1010 5190 c0 -7 3 -10 7 -7 3 4 3 10 0 14 -4 3 -7 0 -7 -7z" />
    <path d="M10100 5190 c0 -7 3 -10 7 -7 3 4 3 10 0 14 -4 3 -7 0 -7 -7z" />
    <path d="M1030 5080 c0 -7 3 -10 7 -7 3 4 3 10 0 14 -4 3 -7 0 -7 -7z" />
    <path d="M1047 4979 l7 -23 4 13 c2 7 -1 18 -6 23 l-11 11 6 -24z" />
    <path d="M10063 4985 c-3 -9 -3 -18 -1 -21 3 -3 8 4 11 16 6 23 -1 27 -10 5z" />
    <path d="M1065 4930 c3 -5 8 -10 11 -10 3 0 2 5 -1 10 -3 6 -8 10 -11 10 -3 0
-2 -4 1 -10z" />
    <path d="M1090 4851 c0 -6 4 -13 10 -16 l10 -6 -6 15 c-7 18 -14 21 -14 7z" />
    <path d="M10020 4850 c0 -7 3 -10 7 -7 3 4 3 10 0 14 -4 3 -7 0 -7 -7z" />
    <path d="M1165 4690 c3 -5 8 -10 11 -10 3 0 2 5 -1 10 -3 6 -8 10 -11 10 -3 0
-2 -4 1 -10z" />
    <path d="M9944 4688 l-7 -11 11 7 c7 4 12 9 12 12 0 8 -9 4 -16 -8z" />
    <path d="M1190 4646 c0 -2 8 -10 18 -17 l17 -14 -14 18 c-13 16 -21 21 -21 13z" />
    <path d="M9909 4633 l-14 -18 18 14 c9 7 17 15 17 17 0 8 -8 3 -21 -13z" />
    <path d="M1277 4529 c7 -7 15 -10 18 -7 3 3 -2 9 -12 12 l-18 7 12 -12z" />
    <path d="M9834 4528 l-7 -11 11 7 c7 4 12 9 12 12 0 8 -9 4 -16 -8z" />
    <path d="M9630 4320 c0 -7 3 -10 7 -7 3 4 3 10 0 14 -4 3 -7 0 -7 -7z" />
    <path d="M1655 4200 c3 -5 8 -10 11 -10 3 0 2 5 -1 10 -3 6 -8 10 -11 10 -3 0
-2 -4 1 -10z" />
    <path d="M9454 4198 l-7 -11 11 7 c7 4 12 9 12 12 0 8 -9 4 -16 -8z" />
    <path d="M1807 4129 c7 -7 15 -10 18 -7 3 3 -2 9 -12 12 l-18 7 12 -12z" />
    <path d="M9300 4130 l-15 -10 12 0 c6 0 15 5 18 10 8 12 4 12 -15 0z" />
    <path d="M9220 4100 l-15 -10 12 0 c6 0 15 5 18 10 8 12 4 12 -15 0z" />
    <path d="M2043 4063 c4 -3 10 -3 14 0 3 4 0 7 -7 7 -7 0 -10 -3 -7 -7z" />
    <path d="M2153 4043 c4 -3 10 -3 14 0 3 4 0 7 -7 7 -7 0 -10 -3 -7 -7z" />
  </g>
  <g transform="translate(0.000000,1618.000000) scale(0.100000,-0.100000)" fill="#989898" stroke="none">
    <path d="M1763 14103 c4 -3 10 -3 14 0 3 4 0 7 -7 7 -7 0 -10 -3 -7 -7z" />
    <path d="M9343 14103 c4 -3 10 -3 14 0 3 4 0 7 -7 7 -7 0 -10 -3 -7 -7z" />
    <path d="M1520 14040 c-18 -12 -2 -12 25 0 l20 9 -15 0 c-8 0 -22 -4 -30 -9z" />
    <path d="M9573 14043 c4 -3 10 -3 14 0 3 4 0 7 -7 7 -7 0 -10 -3 -7 -7z" />
    <path d="M9613 14023 c4 -3 10 -3 14 0 3 4 0 7 -7 7 -7 0 -10 -3 -7 -7z" />
    <path d="M1049 13803 l-14 -18 18 14 c16 13 21 21 13 21 -2 0 -10 -8 -17 -17z" />
    <path d="M10050 13816 c0 -2 8 -10 18 -17 l17 -14 -14 18 c-13 16 -21 21 -21
13z" />
    <path d="M944 13728 l-7 -11 11 7 c7 4 12 9 12 12 0 8 -9 4 -16 -8z" />
    <path d="M419 13203 l-14 -18 18 14 c16 13 21 21 13 21 -2 0 -10 -8 -17 -17z" />
    <path d="M10695 13200 c3 -5 8 -10 11 -10 3 0 2 5 -1 10 -3 6 -8 10 -11 10 -3
0 -2 -4 1 -10z" />
    <path d="M344 13098 l-7 -11 11 7 c7 4 12 9 12 12 0 8 -9 4 -16 -8z" />
    <path d="M121 12643 c-1 -6 -4 -20 -7 -30 l-6 -18 12 18 c6 10 9 23 6 30 l-4
12 -1 -12z" />
    <path d="M10991 12640 c0 -8 4 -22 9 -30 12 -18 12 -2 0 25 l-9 20 0 -15z" />
    <path d="M50 4800 c0 -7 3 -10 7 -7 3 4 3 10 0 14 -4 3 -7 0 -7 -7z" />
    <path d="M111 4585 c0 -5 4 -19 9 -30 l9 -20 0 15 c0 8 -4 22 -9 30 -5 8 -9
11 -9 5z" />
    <path d="M10996 4575 c-3 -9 -6 -22 -5 -28 0 -7 5 -1 10 12 5 13 8 26 5 28 -2
2 -6 -3 -10 -12z" />
    <path d="M345 4090 c3 -5 8 -10 11 -10 3 0 2 5 -1 10 -3 6 -8 10 -11 10 -3 0
-2 -4 1 -10z" />
    <path d="M410 3996 c0 -2 8 -10 18 -17 l17 -14 -14 18 c-13 16 -21 21 -21 13z" />
    <path d="M10694 3988 l-7 -11 11 7 c7 4 12 9 12 12 0 8 -9 4 -16 -8z" />
    <path d="M945 3460 c3 -5 8 -10 11 -10 3 0 2 5 -1 10 -3 6 -8 10 -11 10 -3 0
-2 -4 1 -10z" />
    <path d="M1040 3396 c0 -2 8 -10 18 -17 l17 -14 -14 18 c-13 16 -21 21 -21 13z" />
    <path d="M10059 3383 l-14 -18 18 14 c16 13 21 21 13 21 -2 0 -10 -8 -17 -17z" />
    <path d="M9613 3163 c4 -3 10 -3 14 0 3 4 0 7 -7 7 -7 0 -10 -3 -7 -7z" />
    <path d="M1520 3150 c8 -5 22 -9 30 -9 l15 0 -20 9 c-27 12 -43 12 -25 0z" />
    <path d="M9573 3143 c4 -3 10 -3 14 0 3 4 0 7 -7 7 -7 0 -10 -3 -7 -7z" />
    <path d="M1643 3113 c4 -3 10 -3 14 0 3 4 0 7 -7 7 -7 0 -10 -3 -7 -7z" />
    <path d="M9468 3113 c7 -3 16 -2 19 1 4 3 -2 6 -13 5 l-19 -1 13 -5z" />
    <path d="M1763 3083 c4 -3 10 -3 14 0 3 4 0 7 -7 7 -7 0 -10 -3 -7 -7z" />
    <path d="M9343 3083 c4 -3 10 -3 14 0 3 4 0 7 -7 7 -7 0 -10 -3 -7 -7z" />
  </g>
  <g transform="translate(0.000000,1618.000000) scale(0.100000,-0.100000)" fill="#4d4d4d" stroke="none">
    <path d="M9580 14046 c0 -3 9 -10 20 -16 11 -6 20 -8 20 -6 0 3 -9 10 -20 16
-11 6 -20 8 -20 6z" />
    <path d="M1504 14028 l-7 -11 11 7 c12 7 16 16 8 16 -3 0 -8 -5 -12 -12z" />
    <path d="M10073 13793 c4 -3 10 -3 14 0 3 4 0 7 -7 7 -7 0 -10 -3 -7 -7z" />
    <path d="M124 12648 l-7 -11 11 7 c12 7 16 16 8 16 -3 0 -8 -5 -12 -12z" />
    <path d="M80 12510 c0 -7 3 -10 7 -7 3 4 3 10 0 14 -4 3 -7 0 -7 -7z" />
    <path d="M11030 12510 c0 -7 3 -10 7 -7 3 4 3 10 0 14 -4 3 -7 0 -7 -7z" />
    <path d="M125 4540 c3 -5 8 -10 11 -10 3 0 2 5 -1 10 -3 6 -8 10 -11 10 -3 0
-2 -4 1 -10z" />
    <path d="M525 3850 c3 -5 8 -10 11 -10 3 0 2 5 -1 10 -3 6 -8 10 -11 10 -3 0
-2 -4 1 -10z" />
    <path d="M10584 3848 l-7 -11 11 7 c12 7 16 16 8 16 -3 0 -8 -5 -12 -12z" />
    <path d="M800 3576 c0 -2 8 -10 18 -17 l17 -14 -14 18 c-13 16 -21 21 -21 13z" />
    <path d="M10294 3558 l-7 -11 11 7 c7 4 12 9 12 12 0 8 -9 4 -16 -8z" />
    <path d="M10073 3393 c4 -3 10 -3 14 0 3 4 0 7 -7 7 -7 0 -10 -3 -7 -7z" />
    <path d="M1505 3160 c3 -5 8 -10 11 -10 3 0 2 5 -1 10 -3 6 -8 10 -11 10 -3 0
-2 -4 1 -10z" />
    <path d="M9594 3154 l-19 -15 23 11 c12 6 22 13 22 15 0 8 -5 6 -26 -11z" />
  </g>
  <g transform="translate(0.000000,1618.000000) scale(0.100000,-0.100000)" fill="#268144" stroke="none">
    <path d="M2193 13143 c4 -3 10 -3 14 0 3 4 0 7 -7 7 -7 0 -10 -3 -7 -7z" />
    <path d="M8918 13143 c7 -3 16 -2 19 1 4 3 -2 6 -13 5 l-19 -1 13 -5z" />
    <path d="M9063 13123 c4 -3 10 -3 14 0 3 4 0 7 -7 7 -7 0 -10 -3 -7 -7z" />
    <path d="M9103 13113 c4 -3 10 -3 14 0 3 4 0 7 -7 7 -7 0 -10 -3 -7 -7z" />
    <path d="M1894 13088 l-7 -11 11 7 c12 7 16 16 8 16 -3 0 -8 -5 -12 -12z" />
    <path d="M1644 12978 l-7 -11 11 7 c7 4 12 9 12 12 0 8 -9 4 -16 -8z" />
    <path d="M9465 12980 c3 -5 8 -10 11 -10 3 0 2 5 -1 10 -3 6 -8 10 -11 10 -3
0 -2 -4 1 -10z" />
    <path d="M1584 12938 l-7 -11 11 7 c7 4 12 9 12 12 0 8 -9 4 -16 -8z" />
    <path d="M1554 12918 l-7 -11 11 7 c12 7 16 16 8 16 -3 0 -8 -5 -12 -12z" />
    <path d="M1464 12848 l-7 -11 11 7 c12 7 16 16 8 16 -3 0 -8 -5 -12 -12z" />
    <path d="M9645 12850 c3 -5 8 -10 11 -10 3 0 2 5 -1 10 -3 6 -8 10 -11 10 -3
0 -2 -4 1 -10z" />
    <path d="M1214 12568 l-7 -11 11 7 c7 4 12 9 12 12 0 8 -9 4 -16 -8z" />
    <path d="M1090 12330 c0 -7 3 -10 7 -7 3 4 3 10 0 14 -4 3 -7 0 -7 -7z" />
    <path d="M10020 12330 c0 -7 3 -10 7 -7 3 4 3 10 0 14 -4 3 -7 0 -7 -7z" />
    <path d="M10080 12140 c0 -7 3 -10 7 -7 3 4 3 10 0 14 -4 3 -7 0 -7 -7z" />
    <path d="M1031 12094 l1 -19 5 13 c3 7 2 16 -1 19 -3 4 -6 -2 -5 -13z" />
    <path d="M1011 11954 l1 -19 5 13 c3 7 2 16 -1 19 -3 4 -6 -2 -5 -13z" />
    <path d="M10101 11954 l1 -19 5 13 c3 7 2 16 -1 19 -3 4 -6 -2 -5 -13z" />
    <path d="M1010 5230 c0 -7 3 -10 7 -7 3 4 3 10 0 14 -4 3 -7 0 -7 -7z" />
    <path d="M10100 5230 c0 -7 3 -10 7 -7 3 4 3 10 0 14 -4 3 -7 0 -7 -7z" />
    <path d="M10080 5050 c0 -7 3 -10 7 -7 3 4 3 10 0 14 -4 3 -7 0 -7 -7z" />
    <path d="M1090 4860 c0 -7 3 -10 7 -7 3 4 3 10 0 14 -4 3 -7 0 -7 -7z" />
    <path d="M10020 4860 c0 -7 3 -10 7 -7 3 4 3 10 0 14 -4 3 -7 0 -7 -7z" />
    <path d="M1215 4620 c3 -5 8 -10 11 -10 3 0 2 5 -1 10 -3 6 -8 10 -11 10 -3 0
-2 -4 1 -10z" />
    <path d="M9814 4498 l-7 -11 11 7 c7 4 12 9 12 12 0 8 -9 4 -16 -8z" />
    <path d="M9634 4328 l-7 -11 11 7 c7 4 12 9 12 12 0 8 -9 4 -16 -8z" />
    <path d="M1555 4270 c3 -5 8 -10 11 -10 3 0 2 5 -1 10 -3 6 -8 10 -11 10 -3 0
-2 -4 1 -10z" />
    <path d="M1585 4250 c3 -5 8 -10 11 -10 3 0 2 5 -1 10 -3 6 -8 10 -11 10 -3 0
-2 -4 1 -10z" />
    <path d="M1645 4210 c3 -5 8 -10 11 -10 3 0 2 5 -1 10 -3 6 -8 10 -11 10 -3 0
-2 -4 1 -10z" />
    <path d="M9464 4208 l-7 -11 11 7 c7 4 12 9 12 12 0 8 -9 4 -16 -8z" />
    <path d="M1895 4100 c3 -5 8 -10 11 -10 3 0 2 5 -1 10 -3 6 -8 10 -11 10 -3 0
-2 -4 1 -10z" />
    <path d="M9103 4073 c4 -3 10 -3 14 0 3 4 0 7 -7 7 -7 0 -10 -3 -7 -7z" />
    <path d="M9063 4063 c4 -3 10 -3 14 0 3 4 0 7 -7 7 -7 0 -10 -3 -7 -7z" />
    <path d="M2193 4043 c4 -3 10 -3 14 0 3 4 0 7 -7 7 -7 0 -10 -3 -7 -7z" />
    <path d="M8918 4043 c7 -3 16 -2 19 1 4 3 -2 6 -13 5 l-19 -1 13 -5z" />
  </g>
  <g transform="translate(0.000000,1618.000000) scale(0.100000,-0.100000)" fill="#40d873" stroke="none">
    <path d="M2248 13143 c7 -3 16 -2 19 1 4 3 -2 6 -13 5 l-19 -1 13 -5z" />
    <path d="M8858 13143 c7 -3 16 -2 19 1 4 3 -2 6 -13 5 l-19 -1 13 -5z" />
    <path d="M9635 12860 c3 -5 8 -10 11 -10 3 0 2 5 -1 10 -3 6 -8 10 -11 10 -3
0 -2 -4 1 -10z" />
    <path d="M1050 12210 c0 -7 3 -10 7 -7 3 4 3 10 0 14 -4 3 -7 0 -7 -7z" />
    <path d="M10060 12210 c0 -7 3 -10 7 -7 3 4 3 10 0 14 -4 3 -7 0 -7 -7z" />
    <path d="M1020 12030 c0 -7 3 -10 7 -7 3 4 3 10 0 14 -4 3 -7 0 -7 -7z" />
    <path d="M10090 12030 c0 -7 3 -10 7 -7 3 4 3 10 0 14 -4 3 -7 0 -7 -7z" />
    <path d="M1010 11900 c0 -7 3 -10 7 -7 3 4 3 10 0 14 -4 3 -7 0 -7 -7z" />
    <path d="M10100 11900 c0 -7 3 -10 7 -7 3 4 3 10 0 14 -4 3 -7 0 -7 -7z" />
    <path d="M1011 5284 l1 -19 5 13 c3 7 2 16 -1 19 -3 4 -6 -2 -5 -13z" />
    <path d="M10101 5284 l1 -19 5 13 c3 7 2 16 -1 19 -3 4 -6 -2 -5 -13z" />
    <path d="M1020 5160 c0 -7 3 -10 7 -7 3 4 3 10 0 14 -4 3 -7 0 -7 -7z" />
    <path d="M10090 5160 c0 -7 3 -10 7 -7 3 4 3 10 0 14 -4 3 -7 0 -7 -7z" />
    <path d="M1050 4980 c0 -7 3 -10 7 -7 3 4 3 10 0 14 -4 3 -7 0 -7 -7z" />
    <path d="M10060 4980 c0 -7 3 -10 7 -7 3 4 3 10 0 14 -4 3 -7 0 -7 -7z" />
    <path d="M1190 4650 c0 -7 3 -10 7 -7 3 4 3 10 0 14 -4 3 -7 0 -7 -7z" />
    <path d="M9920 4650 c0 -7 3 -10 7 -7 3 4 3 10 0 14 -4 3 -7 0 -7 -7z" />
    <path d="M9774 4458 l-7 -11 11 7 c7 4 12 9 12 12 0 8 -9 4 -16 -8z" />
    <path d="M1435 4370 c3 -5 8 -10 11 -10 3 0 2 5 -1 10 -3 6 -8 10 -11 10 -3 0
-2 -4 1 -10z" />
    <path d="M2248 4043 c7 -3 16 -2 19 1 4 3 -2 6 -13 5 l-19 -1 13 -5z" />
    <path d="M8858 4043 c7 -3 16 -2 19 1 4 3 -2 6 -13 5 l-19 -1 13 -5z" />
  </g>
  <g transform="translate(0.000000,1618.000000) scale(0.100000,-0.100000)" fill="#dddddd" stroke="none">
    <path d="M9023 14153 c4 -3 10 -3 14 0 3 4 0 7 -7 7 -7 0 -10 -3 -7 -7z" />
    <path d="M933 13723 c4 -3 10 -3 14 0 3 4 0 7 -7 7 -7 0 -10 -3 -7 -7z" />
    <path d="M10173 13723 c4 -3 10 -3 14 0 3 4 0 7 -7 7 -7 0 -10 -3 -7 -7z" />
    <path d="M724 13548 l-7 -11 11 7 c7 4 12 9 12 12 0 8 -9 4 -16 -8z" />
    <path d="M604 13428 l-7 -11 11 7 c12 7 16 16 8 16 -3 0 -8 -5 -12 -12z" />
    <path d="M390 13160 c0 -7 3 -10 7 -7 3 4 3 10 0 14 -4 3 -7 0 -7 -7z" />
    <path d="M0 12060 c0 -7 3 -10 7 -7 3 4 3 10 0 14 -4 3 -7 0 -7 -7z" />
    <path d="M11110 12060 c0 -7 3 -10 7 -7 3 4 3 10 0 14 -4 3 -7 0 -7 -7z" />
    <path d="M145 4480 c3 -5 8 -10 11 -10 3 0 2 5 -1 10 -3 6 -8 10 -11 10 -3 0
-2 -4 1 -10z" />
    <path d="M10964 4478 l-7 -11 11 7 c12 7 16 16 8 16 -3 0 -8 -5 -12 -12z" />
    <path d="M390 4030 c0 -7 3 -10 7 -7 3 4 3 10 0 14 -4 3 -7 0 -7 -7z" />
    <path d="M430 3970 c0 -7 3 -10 7 -7 3 4 3 10 0 14 -4 3 -7 0 -7 -7z" />
    <path d="M605 3760 c3 -5 8 -10 11 -10 3 0 2 5 -1 10 -3 6 -8 10 -11 10 -3 0
-2 -4 1 -10z" />
    <path d="M725 3640 c3 -5 8 -10 11 -10 3 0 2 5 -1 10 -3 6 -8 10 -11 10 -3 0
-2 -4 1 -10z" />
    <path d="M933 3463 c4 -3 10 -3 14 0 3 4 0 7 -7 7 -7 0 -10 -3 -7 -7z" />
    <path d="M10173 3463 c4 -3 10 -3 14 0 3 4 0 7 -7 7 -7 0 -10 -3 -7 -7z" />
    <path d="M9023 3033 c4 -3 10 -3 14 0 3 4 0 7 -7 7 -7 0 -10 -3 -7 -7z" />
  </g>
  <g transform="translate(0.000000,1618.000000) scale(0.100000,-0.100000)" fill="#3bc569" stroke="none">
    <path d="M8873 13143 c4 -3 10 -3 14 0 3 4 0 7 -7 7 -7 0 -10 -3 -7 -7z" />
    <path d="M1883 13083 c4 -3 10 -3 14 0 3 4 0 7 -7 7 -7 0 -10 -3 -7 -7z" />
    <path d="M1793 13053 c4 -3 10 -3 14 0 3 4 0 7 -7 7 -7 0 -10 -3 -7 -7z" />
    <path d="M9313 13053 c4 -3 10 -3 14 0 3 4 0 7 -7 7 -7 0 -10 -3 -7 -7z" />
    <path d="M1700 13010 l-15 -10 12 0 c6 0 15 5 18 10 8 12 4 12 -15 0z" />
    <path d="M9970 12460 c0 -7 3 -10 7 -7 3 4 3 10 0 14 -4 3 -7 0 -7 -7z" />
    <path d="M1070 12270 c0 -7 3 -10 7 -7 3 4 3 10 0 14 -4 3 -7 0 -7 -7z" />
    <path d="M1010 11910 c0 -7 3 -10 7 -7 3 4 3 10 0 14 -4 3 -7 0 -7 -7z" />
    <path d="M10100 11910 c0 -7 3 -10 7 -7 3 4 3 10 0 14 -4 3 -7 0 -7 -7z" />
    <path d="M1070 4920 c0 -7 3 -10 7 -7 3 4 3 10 0 14 -4 3 -7 0 -7 -7z" />
    <path d="M9970 4730 c0 -7 3 -10 7 -7 3 4 3 10 0 14 -4 3 -7 0 -7 -7z" />
    <path d="M1690 4186 c0 -2 7 -7 16 -10 l15 -6 -6 10 c-6 10 -25 14 -25 6z" />
    <path d="M1793 4133 c4 -3 10 -3 14 0 3 4 0 7 -7 7 -7 0 -10 -3 -7 -7z" />
    <path d="M9313 4133 c4 -3 10 -3 14 0 3 4 0 7 -7 7 -7 0 -10 -3 -7 -7z" />
    <path d="M1883 4103 c4 -3 10 -3 14 0 3 4 0 7 -7 7 -7 0 -10 -3 -7 -7z" />
    <path d="M8873 4043 c4 -3 10 -3 14 0 3 4 0 7 -7 7 -7 0 -10 -3 -7 -7z" />
  </g>
  <g transform="translate(0.000000,1618.000000) scale(0.100000,-0.100000)" fill="#247940" stroke="none">
    <path d="M2183 13143 c4 -3 10 -3 14 0 3 4 0 7 -7 7 -7 0 -10 -3 -7 -7z" />
    <path d="M1010 11970 c0 -7 3 -10 7 -7 3 4 3 10 0 14 -4 3 -7 0 -7 -7z" />
    <path d="M10100 11970 c0 -7 3 -10 7 -7 3 4 3 10 0 14 -4 3 -7 0 -7 -7z" />
    <path d="M1010 5220 c0 -7 3 -10 7 -7 3 4 3 10 0 14 -4 3 -7 0 -7 -7z" />
    <path d="M10100 5220 c0 -7 3 -10 7 -7 3 4 3 10 0 14 -4 3 -7 0 -7 -7z" />
    <path d="M2183 4043 c4 -3 10 -3 14 0 3 4 0 7 -7 7 -7 0 -10 -3 -7 -7z" />
  </g>
  <g transform="translate(0.000000,1618.000000) scale(0.100000,-0.100000)" fill="#cecece" stroke="none">
    <path d="M714 13538 l-7 -11 11 7 c7 4 12 9 12 12 0 8 -9 4 -16 -8z" />
    <path d="M10395 13540 c3 -5 8 -10 11 -10 3 0 2 5 -1 10 -3 6 -8 10 -11 10 -3
0 -2 -4 1 -10z" />
    <path d="M270 12970 c0 -7 3 -10 7 -7 3 4 3 10 0 14 -4 3 -7 0 -7 -7z" />
    <path d="M10840 12970 c0 -7 3 -10 7 -7 3 4 3 10 0 14 -4 3 -7 0 -7 -7z" />
    <path d="M270 4220 c0 -7 3 -10 7 -7 3 4 3 10 0 14 -4 3 -7 0 -7 -7z" />
    <path d="M10840 4220 c0 -7 3 -10 7 -7 3 4 3 10 0 14 -4 3 -7 0 -7 -7z" />
    <path d="M715 3650 c3 -5 8 -10 11 -10 3 0 2 5 -1 10 -3 6 -8 10 -11 10 -3 0
-2 -4 1 -10z" />
    <path d="M10394 3648 l-7 -11 11 7 c12 7 16 16 8 16 -3 0 -8 -5 -12 -12z" />
  </g>
  <g transform="translate(0.000000,1618.000000) scale(0.100000,-0.100000)" fill="#d3d3d3" stroke="none">
    <path d="M9764 3218 l-7 -11 11 7 c12 7 16 16 8 16 -3 0 -8 -5 -12 -12z" />
  </g>
  <g transform="translate(0.000000,1618.000000) scale(0.100000,-0.100000)" fill="#585858" stroke="none" />
</svg>